<svg xmlns="http://www.w3.org/2000/svg" version="1.1"
    xmlns:xlink="http://www.w3.org/1999/xlink" width="512" height="512" x="0" y="0" viewBox="0 0 512 512" style="enable-background:new 0 0 512 512" xml:space="preserve" class="">
    <g>
        <path fill="#dfeaef" d="M463.505 8.178a2636.647 2636.647 0 0 0-415.009 0C27.841 9.806 11.34 25.956 9.107 46.553c-12.142 111.97-12.142 223.94 0 335.911 2.234 20.597 18.735 36.747 39.389 38.375a2636.647 2636.647 0 0 0 415.009 0c20.654-1.628 37.155-17.778 39.389-38.375 12.142-111.97 12.142-223.94 0-335.911-2.234-20.597-18.735-36.747-39.389-38.375z" opacity="1" data-original="#dfeaef"></path>
        <path fill="#617881" d="m508.584 111.629-.206-.021c-168.249-14.835-336.498-14.835-504.747 0l-.206.031a1538.83 1538.83 0 0 1 5.687-65.077C11.347 25.959 27.85 9.805 48.495 8.178a2637.98 2637.98 0 0 1 415.019 0c20.645 1.628 37.148 17.781 39.384 38.385a1539.823 1539.823 0 0 1 5.686 65.066z" opacity="1" data-original="#617881"></path>
        <circle cx="65.19" cy="54.706" r="24.165" fill="#dd636e" opacity="1" data-original="#dd636e"></circle>
        <circle cx="210.18" cy="54.706" r="24.165" fill="#86f1a7" opacity="1" data-original="#86f1a7"></circle>
        <circle cx="137.685" cy="54.706" r="24.165" fill="#f4dd45" opacity="1" data-original="#f4dd45"></circle>
        <path fill="#f4dd45" d="m44.42 493.026 13.8 13.8c6.892 6.892 18.066 6.892 24.958 0l217.281-217.281c6.892-6.892 6.892-18.066 0-24.958l-13.8-13.8c-6.892-6.892-18.066-6.892-24.958 0L44.42 468.068c-6.892 6.892-6.892 18.066 0 24.958z" opacity="1" data-original="#f4dd45"></path>
        <path fill="#eab14d" d="M301.744 266.003c-6.933-5.635-17.132-5.233-23.591 1.226L60.867 484.515c-6.449 6.449-6.861 16.627-1.257 23.56a15.983 15.983 0 0 1-1.391-1.246l-13.794-13.804c-6.892-6.892-6.892-18.059 0-24.951l217.276-217.286c6.892-6.892 18.069-6.892 24.961 0l13.804 13.804c.453.453.876.927 1.278 1.411z" opacity="1" data-original="#eab14d"></path>
        <path fill="#dd636e" d="m44.423 468.065 146.43-146.43 38.755 38.766-146.43 146.43c-6.892 6.892-18.059 6.892-24.951 0l-13.805-13.804c-6.891-6.892-6.891-18.07.001-24.962z" opacity="1" data-original="#dd636e"></path>
        <path fill="#c63d4f" d="m207.292 338.08-16.443-16.447L44.42 468.068c-6.892 6.892-6.892 18.059 0 24.951l13.794 13.804.003.003h.005c.412.412.841.796 1.282 1.158.031.025.06.052.091.076l.009.006c-5.602-6.933-5.19-17.109 1.259-23.557z" opacity="1" data-original="#c63d4f"></path>
        <path fill="#f4dd45" d="m433.937 312.879 28.517-6.246c8.827-1.933 8.827-14.52 0-16.454l-28.517-6.246a8.424 8.424 0 0 1-6.425-6.425l-6.246-28.517c-1.933-8.827-14.52-8.827-16.454 0l-6.246 28.517a8.424 8.424 0 0 1-6.425 6.425l-28.517 6.246c-8.827 1.933-8.827 14.52 0 16.454l28.517 6.246a8.424 8.424 0 0 1 6.425 6.425l6.246 28.517c1.933 8.827 14.52 8.827 16.454 0l6.246-28.517a8.42 8.42 0 0 1 6.425-6.425zM194.99 223.556l39.037-8.551c12.083-2.647 12.083-19.877 0-22.524l-39.037-8.551a11.53 11.53 0 0 1-8.795-8.795l-8.551-39.037c-2.647-12.083-19.877-12.083-22.524 0l-8.551 39.037a11.53 11.53 0 0 1-8.795 8.795l-39.037 8.551c-12.083 2.647-12.083 19.877 0 22.524l39.037 8.551a11.53 11.53 0 0 1 8.795 8.795l8.551 39.036c2.647 12.083 19.877 12.083 22.524 0l8.551-39.036a11.528 11.528 0 0 1 8.795-8.795z" opacity="1" data-original="#f4dd45"></path>
        <g fill="#f4dd45">
            <path d="M350.775 170.631a7.725 7.725 0 0 1-7.726-7.726V131.91a7.726 7.726 0 1 1 15.452 0v30.995a7.727 7.727 0 0 1-7.726 7.726zM350.775 235.622a7.725 7.725 0 0 1-7.726-7.726v-30.995a7.726 7.726 0 1 1 15.452 0v30.995a7.726 7.726 0 0 1-7.726 7.726zM398.768 187.629h-30.995a7.726 7.726 0 1 1 0-15.452h30.995a7.726 7.726 0 1 1 0 15.452zM333.777 187.629h-30.996a7.726 7.726 0 1 1 0-15.452h30.996a7.726 7.726 0 1 1 0 15.452z" fill="#f4dd45" opacity="1" data-original="#f4dd45"></path>
        </g>
    </g>
</svg>