<svg width="37" height="37" viewBox="0 0 37 37" fill="none" xmlns="http://www.w3.org/2000/svg">
<path fill-rule="evenodd" clip-rule="evenodd" d="M15.3963 24.109C15.3963 22.4352 15.3897 20.7623 15.402 19.0894C15.4039 18.8078 15.3245 18.7189 15.0428 18.7303C14.5211 18.7511 13.9985 18.7284 13.4767 18.7397C13.265 18.7454 13.1875 18.6868 13.1894 18.4628C13.1998 17.4184 13.1989 16.3741 13.1904 15.3297C13.1885 15.1284 13.249 15.0632 13.4522 15.067C13.9862 15.0792 14.5211 15.0518 15.0542 15.0783C15.3632 15.0934 15.4266 14.9838 15.4209 14.6974C15.402 13.9026 15.402 13.1068 15.4199 12.3119C15.4407 11.3412 15.7016 10.4349 16.28 9.64567C17.0115 8.64667 18.0521 8.18922 19.2515 8.1363C20.484 8.08148 21.7192 8.11172 22.9536 8.09849C23.1256 8.0966 23.1766 8.15804 23.1766 8.32532C23.171 9.38104 23.17 10.4377 23.1766 11.4934C23.1785 11.6815 23.1171 11.7391 22.9328 11.7354C22.3393 11.7259 21.7457 11.7306 21.1531 11.7325C20.363 11.7354 19.8904 12.1418 19.8413 12.9234C19.8016 13.55 19.8309 14.1804 19.8157 14.8089C19.8101 15.0329 19.9433 15.0178 20.0917 15.0178C20.9934 15.0169 21.896 15.0263 22.7976 15.0112C23.0623 15.0065 23.1492 15.0679 23.119 15.3458C23.0056 16.3949 22.9082 17.4459 22.8184 18.4978C22.7976 18.735 22.6899 18.7804 22.4763 18.7766C21.7646 18.7653 21.0529 18.769 20.3403 18.7738C19.829 18.7766 19.8791 18.6991 19.8791 19.2208C19.8762 22.4957 19.8725 25.7715 19.8866 29.0464C19.8885 29.3923 19.7997 29.4783 19.4575 29.4717C18.2355 29.449 17.0125 29.4481 15.7904 29.4717C15.4464 29.4783 15.3897 29.3621 15.3925 29.0549C15.4058 27.4057 15.3991 25.7564 15.3991 24.1062L15.3963 24.109Z" fill="white"/>
</svg>
