<svg width="28" height="30" viewBox="0 0 28 30" fill="none" xmlns="http://www.w3.org/2000/svg">
<g clip-path="url(#clip0_1_34)">
<path fill-rule="evenodd" clip-rule="evenodd" d="M1.86002 8.40975C2.42945 7.12435 3.23445 6.00213 4.179 4.98689C6.31568 2.69011 8.90175 1.21922 11.9635 0.717372C16.2488 0.0154061 20.0841 1.05142 23.3986 3.97936C23.6079 4.16409 23.6597 4.27261 23.4324 4.50121C22.2628 5.67654 21.1111 6.87112 19.9528 8.05876C19.8342 8.18038 19.754 8.32893 19.5431 8.13111C16.6255 5.38791 11.8622 5.41946 8.76146 8.37819C7.69687 9.39419 6.93988 10.6111 6.44472 12.0066C6.3727 11.9581 6.29618 11.915 6.2279 11.8611C4.77169 10.7119 3.31623 9.56122 1.86077 8.41052L1.86002 8.40975Z" fill="#D7282A"/>
<path fill-rule="evenodd" clip-rule="evenodd" d="M6.40947 17.6076C6.82811 18.6975 7.34727 19.7281 8.12002 20.6033C10.0841 22.8292 12.5194 23.7891 15.4363 23.4781C16.792 23.3334 18.0269 22.8623 19.1808 22.1388C19.2918 22.2404 19.3969 22.349 19.5139 22.4429C20.8643 23.5243 22.217 24.6042 23.5682 25.6841C22.0775 27.1365 20.3174 28.1032 18.3375 28.6166C13.6695 29.8274 9.36691 29.0623 5.54595 25.9688C3.9667 24.6896 2.72355 23.1102 1.84802 21.2406C3.36801 20.0298 4.88874 18.8183 6.40872 17.6076H6.40947Z" fill="#45AC43"/>
<path fill-rule="evenodd" clip-rule="evenodd" d="M23.5689 25.6849C22.217 24.605 20.8651 23.5251 19.5146 22.4437C19.3976 22.3498 19.2926 22.2412 19.1815 22.1396C20.0968 21.4231 20.8606 20.5756 21.3617 19.4988C21.5613 19.0693 21.7023 18.6198 21.8351 18.1657C21.9267 17.8524 21.8982 17.7308 21.5208 17.7339C19.2708 17.7531 17.0209 17.7439 14.7709 17.7431C14.4533 17.7431 14.2942 17.5746 14.2937 17.2374C14.2937 15.6726 14.3012 14.1086 14.287 12.5438C14.284 12.2421 14.3358 12.1259 14.6674 12.1274C18.8169 12.1397 22.9672 12.1374 27.1168 12.1312C27.3411 12.1312 27.4814 12.1482 27.5204 12.4276C28.0366 16.1514 27.6232 19.7089 25.7229 22.9955C25.1414 24.0015 24.4422 24.9206 23.5674 25.6849H23.5689Z" fill="#5D7FBE"/>
<path fill-rule="evenodd" clip-rule="evenodd" d="M6.40946 17.6076C4.88947 18.8184 3.36874 20.0291 1.84876 21.2406C1.10602 19.8244 0.678385 18.3034 0.478071 16.7186C0.132211 13.9731 0.512582 11.3315 1.64769 8.81305C1.70996 8.67451 1.78874 8.54443 1.86001 8.40973C3.31547 9.55966 4.77094 10.7104 6.22715 11.8595C6.29542 11.9134 6.37119 11.9565 6.44397 12.005C5.83402 13.8684 5.86478 15.7365 6.40946 17.6069V17.6076Z" fill="#F4C300"/>
</g>
<defs>
<clipPath id="clip0_1_34">
<rect width="27.3702" height="28.6582" fill="white" transform="translate(0.355042 0.505676)"/>
</clipPath>
</defs>
</svg>
