<svg width="104" height="42" viewBox="0 0 104 42" fill="none" xmlns="http://www.w3.org/2000/svg">
<g clip-path="url(#clip0_1_53)">
<path d="M10.1411 40.0459C10.1583 39.5327 9.75328 39.1028 9.2364 39.0857C8.71953 39.0685 8.28655 39.4707 8.26931 39.9839C8.25207 40.4971 8.65711 40.927 9.17398 40.9441C9.69086 40.9612 10.1238 40.5591 10.1411 40.0459Z" fill="#F4C300"/>
<path d="M7.22922 39.1877C6.96922 39.1877 6.76102 39.0848 6.55281 38.9295C2.34 34.6952 0 29.1187 0 23.1802C0 17.2416 2.34 11.6651 6.55281 7.48222C10.7656 3.29933 16.382 0.975952 22.363 0.975952C28.3441 0.975952 33.9605 3.29933 38.1733 7.48222C38.5369 7.84324 38.5369 8.46341 38.1733 8.82442C37.8097 9.18543 37.1851 9.18543 36.8215 8.82442C33.0251 4.95212 27.8759 2.83445 22.3641 2.83445C16.8523 2.83445 11.7548 4.95111 7.90664 8.82442C4.05844 12.6967 1.87383 17.7579 1.87383 23.1792C1.87383 28.6004 4.00562 33.713 7.85484 37.5863C8.21844 37.9473 8.21844 38.5675 7.85484 38.9285C7.69844 39.0838 7.49125 39.1867 7.23125 39.1867L7.22922 39.1877Z" fill="#F4C300"/>
<path d="M22.363 4.3844C11.9082 4.3844 3.4328 12.7996 3.4328 23.1802C3.4328 33.5608 11.9082 41.976 22.363 41.976C32.8179 41.976 41.2933 33.5608 41.2933 23.1802C41.2933 12.7996 32.8179 4.3844 22.363 4.3844ZM19.7102 40.2203C19.1933 40.2203 18.7738 39.8039 18.7738 39.2906C18.7738 38.7773 19.1933 38.3608 19.7102 38.3608C20.2272 38.3608 20.6466 38.7773 20.6466 39.2906C20.6466 39.8039 20.2272 40.2203 19.7102 40.2203ZM22.363 40.4271C21.843 40.4271 21.4266 40.0136 21.4266 39.4973C21.4266 38.981 21.843 38.5675 22.363 38.5675C30.8923 38.5675 37.8087 31.7003 37.8087 23.2316C37.8087 14.763 30.8923 7.84325 22.363 7.84325C21.843 7.84325 21.4266 7.4298 21.4266 6.9135C21.4266 6.39719 21.843 5.98374 22.363 5.98374C31.9323 5.98374 39.6815 13.7293 39.6815 23.1792C39.6815 32.629 31.9323 40.426 22.363 40.426V40.4271Z" fill="#F4C300"/>
<path d="M74.5773 28.8606C74.7855 28.8606 75.0973 29.0673 75.2009 29.274C75.3573 29.4807 75.3045 29.635 75.0973 29.635C69.2727 29.2216 65.0081 29.3254 61.8881 29.6864C60.0681 32.2166 57.9881 34.6952 57.0517 34.6952C55.8035 34.6952 54.7117 34.1275 54.1389 33.3006C53.8271 32.8357 53.7225 32.3194 53.9307 31.8545C54.1389 31.3897 54.5543 30.9762 55.2825 30.5123C56.4271 29.8407 58.2989 29.273 61.1589 28.912C61.7825 28.0861 62.7189 26.64 63.2389 25.8656C62.4071 26.5886 60.6389 27.2602 60.0143 27.1563C59.0261 27.001 58.8179 26.5886 58.9743 25.917C59.3379 24.3681 62.3025 22.3029 64.0707 24.1099C64.6943 23.5422 65.1107 23.0773 65.1107 23.0773C65.2143 22.9745 65.4225 23.0259 65.6825 23.1802C65.9425 23.3355 66.0461 23.5936 65.9943 23.6965L65.6825 24.1099H65.6307C65.6307 24.1099 64.2261 26.3305 62.5625 28.7577C65.5271 28.4995 69.4789 28.4995 74.5763 28.8606H74.5773ZM60.4317 29.8932C58.3517 30.2542 56.9471 30.7191 56.0107 31.2878C55.3343 31.6488 54.9189 32.1137 54.7625 32.4757C54.6061 32.8377 54.6589 33.1473 54.8143 33.354C55.0743 33.6636 55.6461 33.8703 56.4261 33.9218C57.2061 33.8703 58.8189 32.0633 60.4307 29.8942L60.4317 29.8932ZM63.7081 24.4709C62.4599 23.1287 58.8199 26.64 60.2235 26.6915C60.9517 26.7429 62.9799 25.6074 63.7081 24.4709Z" fill="black"/>
<path d="M70.0527 24.6262C68.7527 25.1425 67.2963 25.2978 67.2445 25.2978C65.3727 28.6024 72.8092 25.8141 73.641 24.5234C73.7445 24.3681 74.0045 24.2138 74.2645 24.4205C74.4727 24.5758 74.4727 24.6786 74.421 24.8339C73.641 25.918 69.3763 28.3452 67.4517 27.4679C66.5153 27.0545 65.9435 26.1257 66.1517 25.2474C66.3081 24.6797 66.7235 24.1109 67.2435 23.5946C67.8153 23.0783 68.4399 22.6134 69.0117 22.2524C69.7917 21.7875 70.5717 21.5294 70.8317 21.5808C71.0917 21.6322 71.2999 21.7361 71.5081 21.9418C71.7681 22.2 71.8717 22.4581 71.8199 22.7677C71.7681 22.9744 71.6635 23.1812 71.5599 23.3869C71.2481 23.8518 70.6753 24.3681 70.0517 24.6262H70.0527ZM68.0763 24.2642C68.4399 24.1613 68.8563 24.0575 69.3245 23.9032C69.8963 23.645 70.4163 23.1801 70.6763 22.7667C70.7281 22.6638 70.7799 22.6114 70.8327 22.5085C70.5209 22.6114 70.1563 22.8181 69.7409 23.0249C69.2209 23.3859 68.5963 23.7993 68.0763 24.2642Z" fill="black"/>
<path d="M74.4737 23.1287C74.5773 23.0258 74.8373 23.0773 75.0455 23.2316C75.3055 23.3869 75.4091 23.645 75.3055 23.7479L74.6291 24.7805C76.1373 23.7479 77.7491 22.7667 78.3219 22.922H78.3737C79.2055 23.1287 79.3101 23.5411 79.1537 24.1099C79.0501 24.368 78.8937 24.6262 78.6855 24.9882C78.3219 25.556 77.9055 26.2276 77.9055 26.2276C78.7902 26.6924 81.7537 24.5748 81.8055 24.5748C81.9091 24.4719 82.1691 24.2138 82.4291 24.4195C82.6891 24.5748 82.5327 24.6262 82.3773 24.7805C82.3773 24.7805 79.3609 27.6726 77.9563 26.8971C76.7081 26.2255 77.3327 25.2444 77.8527 24.367C77.9563 24.2117 78.0609 24.006 78.1645 23.8507C76.6045 24.5223 72.9635 27.362 72.8081 27.4649C72.7045 27.5677 72.4963 27.4649 72.2363 27.3096C72.0281 27.1029 71.8727 26.8961 71.9763 26.7933L74.4727 23.1267L74.4737 23.1287Z" fill="black"/>
<path d="M85.6548 24.9358C85.5512 25.0911 85.343 25.0387 85.083 24.8329C84.823 24.6777 84.7194 24.4195 84.7712 24.3166C84.823 24.3166 85.2394 23.5422 85.1348 23.5422C84.6148 23.5422 83.4702 24.1099 82.6384 24.9368C82.3266 25.2464 82.0148 25.556 81.8066 25.8666C81.5984 26.1762 81.4948 26.4857 81.4948 26.7449C81.4948 26.9516 81.5466 27.1059 81.703 27.2612C82.8476 28.0871 88.5158 24.6272 88.5158 24.6272C88.6194 24.6272 88.8794 24.3177 89.0876 24.3691C89.2958 24.5758 89.3994 24.7825 89.2958 24.8854C89.244 24.8854 83.3148 29.0683 81.4948 27.6736C80.8712 27.2088 80.663 26.7439 80.663 26.2276C80.663 25.8666 80.8194 25.5046 81.0266 25.195C81.2348 24.8854 81.5466 24.5234 81.8584 24.2138C82.743 23.3879 83.9902 22.7163 84.6148 22.7677C86.903 22.8192 85.6548 24.9368 85.6548 24.9368V24.9358Z" fill="black"/>
<path d="M103.285 28.8605C103.493 28.8605 103.805 29.0673 103.909 29.274C104.065 29.4807 104.012 29.635 103.805 29.635C97.9804 29.2216 93.7158 29.3254 90.5958 29.6864C88.7758 32.2165 86.6958 34.6952 85.7594 34.6952C84.5112 34.6952 83.4194 34.1275 82.8465 33.3006C82.5348 32.8357 82.4301 32.3194 82.6383 31.8545C82.8466 31.3896 83.2619 30.9762 83.9901 30.5123C85.1348 29.8407 87.0066 29.273 89.8666 28.912C90.5948 27.9308 91.2712 26.9496 91.843 26.0723C91.0112 26.6914 90.1266 27.1563 89.5548 27.1049C89.2948 27.1049 89.1383 27.0535 88.9312 26.9496C88.3594 26.6915 88.0994 26.3304 88.0994 25.8656C88.0476 25.6074 88.203 25.2464 88.3594 24.8844C88.723 24.1613 89.4512 23.284 90.3358 22.4057C90.4394 22.3028 90.6994 22.4057 90.9594 22.561C91.1676 22.7677 91.2712 22.9744 91.1676 23.0773C90.283 23.9032 89.6076 24.7815 89.243 25.4531C89.1912 25.556 89.1394 26.0209 89.2948 26.1247C91.1666 26.4857 94.443 22.6134 94.2358 22.5106C94.3394 22.4077 94.5476 22.4591 94.8076 22.6659C95.0158 22.8212 95.1712 23.0793 95.0676 23.1822L94.444 24.0605H94.3922C94.3922 24.0605 92.9876 26.281 91.324 28.7083C94.2368 28.5016 98.1886 28.5015 103.285 28.8636V28.8605ZM89.1394 29.8932C87.0594 30.2542 85.6548 30.719 84.7184 31.2878C84.0419 31.6488 83.6266 32.1137 83.4701 32.4757C83.3137 32.8367 83.3666 33.1473 83.5219 33.354C83.7819 33.6636 84.3537 33.8703 85.1337 33.9218C85.9137 33.8703 87.5255 32.0633 89.1383 29.8942L89.1394 29.8932Z" fill="black"/>
<path d="M59.7736 20.8931C60.6612 19.1717 61.3275 17.7126 61.812 16.4299C62.074 15.7149 62.0953 15.2521 61.881 14.9727C61.7327 14.7801 61.487 14.6964 61.1609 14.7236C60.9741 14.7236 60.5201 15.0836 57.4194 17.6843L56.8709 18.1442C54.0973 16.7385 49.1816 17.6853 45.7407 19.1798C44.9475 19.5247 44.1421 19.9432 43.5195 20.3365C42.8431 20.8255 42.4714 21.1815 42.316 21.4911C42.1139 21.8924 42.25 22.3019 42.6898 22.6135C43.6394 23.279 47.5099 23.3032 50.8138 23.1872L50.3933 23.5321C48.1985 25.3291 46.1205 27.0313 44.7332 27.9822C44.7119 27.955 44.6865 27.9258 44.656 27.8955C44.4945 27.7352 44.2345 27.6495 44.0832 27.7785C43.5104 28.193 42.8584 28.7607 42.9731 29.0975C43.032 29.4444 43.2545 29.633 43.5957 29.633C43.6516 29.633 43.7105 29.628 43.7724 29.6179C44.5443 29.4828 47.1392 27.5365 52.4469 23.1106C54.0688 23.0289 55.6827 22.915 56.9837 22.8232L57.6276 22.7778C56.8059 24.117 56.0442 25.2363 55.3302 26.272C54.5218 27.476 54.2455 27.9066 54.3238 28.2071C54.4659 28.5601 54.7138 28.7063 55.0245 28.6387C55.2388 28.6387 55.5039 28.4159 56.2118 27.6424C56.7074 27.0747 57.6479 25.8979 58.3741 24.3943C58.6209 23.8548 58.8636 23.278 58.9845 22.6921C59.8335 22.6437 60.3464 22.5973 60.3464 22.5973L60.4155 22.5772C60.517 22.5267 60.581 22.444 60.5973 22.3432C60.6155 22.2303 60.5688 22.1113 60.4906 22.0387C60.3454 21.8229 60.1352 21.7533 59.9402 21.7472C59.9381 21.7472 59.6944 21.7775 59.3003 21.8148C59.4263 21.597 59.54 21.3661 59.6507 21.1392L59.7736 20.8911V20.8931ZM55.9345 18.9035C55.1637 19.5731 54.3278 20.2699 53.4432 21.0081C52.9232 21.4417 52.3971 21.8803 51.8781 22.319C45.3629 22.6528 43.5845 22.324 43.1448 22.0921C43.1519 22.0719 43.159 22.0498 43.1661 22.0316L43.1844 21.9761C43.3316 21.6827 43.6952 21.3439 44.2071 21.0202C44.9292 20.5634 45.6341 20.1973 46.3633 19.8988C49.5391 18.5556 53.7763 17.6632 56.3144 18.5909L55.9355 18.9045L55.9345 18.9035ZM58.9916 20.3919C58.7742 19.7223 58.367 19.1475 57.7799 18.6796L58.3893 18.1704C59.4435 17.2901 60.4053 16.4853 61.0096 15.9963C60.7283 16.8635 60.0742 18.2904 59.0098 20.3566C59.0038 20.3687 58.9977 20.3808 58.9916 20.3919ZM58.2654 21.7755L58.1841 21.9106L57.8429 21.9368C56.6912 22.0256 55.1596 22.1435 53.5173 22.2333C54.602 21.3358 55.6979 20.4262 56.6577 19.6094L57.267 19.0911C57.7464 19.4642 58.0328 19.8645 58.1648 20.3445C58.2888 20.756 58.3202 21.1987 58.2654 21.7755Z" fill="black"/>
<path d="M24.8077 18.9973L24.9113 20.1338H24.8077C24.5477 19.7203 24.2359 19.4622 23.8195 19.204C23.3512 18.9459 22.8312 18.843 22.3112 18.843C21.583 18.843 20.9066 19.0497 20.283 19.4107C19.6595 19.7718 19.1384 20.2891 18.8266 20.9597C18.463 21.6313 18.3066 22.4057 18.3066 23.2316C18.3066 24.1099 18.5148 24.832 18.8266 25.5036C19.1384 26.1227 19.6584 26.6915 20.283 27.0525C20.8548 27.4135 21.5312 27.5688 22.4148 27.5174C22.9866 27.5174 23.5066 27.4659 23.923 27.2078C24.3395 27.0011 24.6513 26.6915 24.8595 26.3295H24.963V27.3106H26.9395V15.7956H24.8077V18.9973ZM24.5995 24.4195C24.3913 24.7805 24.0795 25.0911 23.7677 25.2968C23.4041 25.5036 23.0395 25.6579 22.623 25.6064C22.2595 25.6064 21.843 25.5036 21.5312 25.2968C21.2195 25.0901 20.9077 24.7805 20.6995 24.4195C20.4912 24.0585 20.3877 23.6451 20.3877 23.1288C20.3877 22.6125 20.4912 22.199 20.6995 21.838C20.9077 21.477 21.1677 21.1664 21.5312 20.9597C21.8948 20.7529 22.2595 20.6501 22.623 20.6501C23.0395 20.6501 23.4548 20.7529 23.7677 20.9597C24.0795 21.1664 24.3913 21.476 24.5995 21.838C24.8077 22.199 24.9113 22.6125 24.9113 23.1288C24.9113 23.6451 24.8077 24.0585 24.5995 24.4195Z" fill="black"/>
<path d="M10.8174 15.7441L6.44922 27.3106H8.89383L9.83023 24.5224H14.303L15.2913 27.3106H17.7359L13.3677 15.7441H10.8195H10.8174ZM10.5574 22.56L11.5974 19.6679L12.0138 18.2732H12.1174L12.5338 19.6679L13.5738 22.56H10.5574Z" fill="black"/>
<path d="M35.0005 23.283C34.5841 22.8696 33.9605 22.56 33.1287 22.3533L31.9323 22.0437C31.1523 21.837 30.7877 21.5274 30.7877 21.1654C30.7877 20.9587 30.8913 20.7519 31.0995 20.6491C31.3077 20.5462 31.6195 20.4423 31.9831 20.4423C32.7113 20.4423 33.2313 20.7519 33.5431 21.3207L35.3631 20.5462C34.7913 19.3583 33.6467 18.7391 31.9302 18.7391C31.3584 18.7391 30.8384 18.842 30.3184 19.0487C29.8502 19.2554 29.4867 19.565 29.1738 19.927C28.862 20.2881 28.7574 20.7529 28.7574 21.2178C28.7574 21.8894 28.9656 22.4057 29.4338 22.8182C29.8502 23.2316 30.422 23.5412 31.0984 23.6965L32.0349 23.9032C32.6067 24.0061 32.9184 24.1614 33.1267 24.2642C33.3349 24.4195 33.4384 24.6252 33.4384 24.8834C33.4384 25.193 33.3349 25.3997 33.0749 25.5026C32.8149 25.6054 32.5031 25.7093 32.0866 25.7093C31.6184 25.7093 31.2549 25.6064 30.942 25.3997C30.6302 25.193 30.3702 24.8834 30.2138 24.5214L28.342 25.3473C28.602 26.0189 29.0184 26.5352 29.642 26.9476C30.2138 27.3611 31.0467 27.5668 32.0349 27.6192C32.7113 27.6192 33.2831 27.4639 33.9067 27.1543C34.4267 26.9476 34.8431 26.638 35.1549 26.2246C35.4667 25.8111 35.6231 25.3462 35.6231 24.8299C35.6231 24.2108 35.4149 23.6935 34.9995 23.281L35.0005 23.283Z" fill="black"/>
</g>
<path d="M43.6619 10.4578V7.18504H44.2734V7.71771H44.3139C44.3821 7.53731 44.4936 7.39668 44.6484 7.29583C44.8032 7.19356 44.9886 7.14242 45.2045 7.14242C45.4233 7.14242 45.6065 7.19356 45.7542 7.29583C45.9034 7.3981 46.0135 7.53873 46.0845 7.71771H46.1186C46.1967 7.54299 46.321 7.40379 46.4915 7.30009C46.6619 7.19498 46.865 7.14242 47.1008 7.14242C47.3977 7.14242 47.6399 7.23546 47.8274 7.42154C48.0163 7.60762 48.1108 7.88816 48.1108 8.26316V10.4578H47.4737V8.32282C47.4737 8.10123 47.4133 7.94072 47.2926 7.84129C47.1719 7.74185 47.0277 7.69214 46.8601 7.69214C46.6527 7.69214 46.4915 7.75606 46.3764 7.8839C46.2613 8.01032 46.2038 8.17296 46.2038 8.37183V10.4578H45.5689V8.28234C45.5689 8.10478 45.5135 7.96202 45.4027 7.85407C45.2919 7.74612 45.1477 7.69214 44.9701 7.69214C44.8494 7.69214 44.7379 7.7241 44.6356 7.78802C44.5348 7.85052 44.4531 7.93788 44.3906 8.05009C44.3295 8.16231 44.299 8.29228 44.299 8.44001V10.4578H43.6619ZM50.3432 10.5238C50.0364 10.5238 49.7686 10.4535 49.5399 10.3129C49.3112 10.1723 49.1337 9.97552 49.0073 9.72268C48.8808 9.46984 48.8176 9.17438 48.8176 8.83631C48.8176 8.49683 48.8808 8.19995 49.0073 7.94569C49.1337 7.69143 49.3112 7.49399 49.5399 7.35336C49.7686 7.21274 50.0364 7.14242 50.3432 7.14242C50.65 7.14242 50.9178 7.21274 51.1465 7.35336C51.3752 7.49399 51.5527 7.69143 51.6791 7.94569C51.8056 8.19995 51.8688 8.49683 51.8688 8.83631C51.8688 9.17438 51.8056 9.46984 51.6791 9.72268C51.5527 9.97552 51.3752 10.1723 51.1465 10.3129C50.9178 10.4535 50.65 10.5238 50.3432 10.5238ZM50.3453 9.98901C50.5442 9.98901 50.709 9.93646 50.8396 9.83134C50.9703 9.72623 51.0669 9.58631 51.1294 9.4116C51.1933 9.23688 51.2253 9.04441 51.2253 8.83418C51.2253 8.62538 51.1933 8.43362 51.1294 8.2589C51.0669 8.08276 50.9703 7.94143 50.8396 7.83489C50.709 7.72836 50.5442 7.67509 50.3453 7.67509C50.145 7.67509 49.9788 7.72836 49.8467 7.83489C49.7161 7.94143 49.6188 8.08276 49.5548 8.2589C49.4923 8.43362 49.4611 8.62538 49.4611 8.83418C49.4611 9.04441 49.4923 9.23688 49.5548 9.4116C49.6188 9.58631 49.7161 9.72623 49.8467 9.83134C49.9788 9.93646 50.145 9.98901 50.3453 9.98901ZM50.78 6.79299L50.3432 6.22197L49.9043 6.79299H49.329V6.76103L50.0769 5.85762H50.6074L51.3574 6.76103V6.79299H50.78ZM50.3432 11.587C50.2338 11.587 50.1394 11.5501 50.0598 11.4762C49.9803 11.4024 49.9405 11.3129 49.9405 11.2078C49.9405 11.1027 49.9803 11.0132 50.0598 10.9393C50.1394 10.8654 50.2338 10.8285 50.3432 10.8285C50.454 10.8285 50.5485 10.8654 50.6266 10.9393C50.7061 11.0132 50.7459 11.1027 50.7459 11.2078C50.7459 11.3129 50.7061 11.4024 50.6266 11.4762C50.5485 11.5501 50.454 11.587 50.3432 11.587ZM54.1076 7.18504V7.6964H52.3199V7.18504H54.1076ZM52.7993 6.40095H53.4364V9.49683C53.4364 9.62041 53.4549 9.71345 53.4918 9.77595C53.5287 9.83703 53.5763 9.87893 53.6346 9.90166C53.6942 9.92296 53.7589 9.93362 53.8285 9.93362C53.8796 9.93362 53.9243 9.93006 53.9627 9.92296C54.001 9.91586 54.0309 9.91018 54.0522 9.90592L54.1672 10.4322C54.1303 10.4464 54.0777 10.4606 54.0096 10.4748C53.9414 10.4904 53.8562 10.499 53.7539 10.5004C53.5863 10.5032 53.43 10.4734 53.2851 10.4109C53.1402 10.3484 53.0231 10.2518 52.9336 10.1211C52.8441 9.99043 52.7993 9.82637 52.7993 9.62893V6.40095ZM58.8526 7.98404L58.2752 8.08631C58.251 8.01245 58.2127 7.94214 58.1601 7.87538C58.109 7.80862 58.0394 7.75393 57.9513 7.71131C57.8633 7.6687 57.7532 7.64739 57.6211 7.64739C57.4407 7.64739 57.2901 7.68788 57.1694 7.76884C57.0486 7.84839 56.9883 7.95137 56.9883 8.07779C56.9883 8.18717 57.0287 8.27524 57.1097 8.342C57.1907 8.40876 57.3214 8.46345 57.5018 8.50606L58.0216 8.62538C58.3228 8.69498 58.5472 8.80222 58.6949 8.94711C58.8427 9.092 58.9165 9.28021 58.9165 9.51174C58.9165 9.70776 58.8597 9.88248 58.7461 10.0359C58.6339 10.1879 58.4769 10.3072 58.2752 10.3938C58.0749 10.4805 57.8427 10.5238 57.5785 10.5238C57.212 10.5238 56.913 10.4457 56.6814 10.2894C56.4499 10.1318 56.3079 9.90805 56.2553 9.61827L56.8711 9.52452C56.9094 9.68504 56.9883 9.80649 57.1076 9.88887C57.2269 9.96984 57.3824 10.0103 57.5742 10.0103C57.783 10.0103 57.9499 9.967 58.0749 9.88035C58.1999 9.79228 58.2624 9.68504 58.2624 9.55862C58.2624 9.45634 58.2241 9.37041 58.1474 9.3008C58.0721 9.2312 57.9563 9.17864 57.8 9.14313L57.2461 9.02168C56.9407 8.95208 56.7148 8.84129 56.5685 8.6893C56.4236 8.53731 56.3512 8.34484 56.3512 8.11188C56.3512 7.9187 56.4052 7.74967 56.5131 7.60478C56.6211 7.45989 56.7702 7.34697 56.9606 7.266C57.1509 7.18362 57.3689 7.14242 57.6147 7.14242C57.9684 7.14242 58.2468 7.21913 58.4499 7.37254C58.653 7.52452 58.7873 7.72836 58.8526 7.98404ZM60.5694 10.5302C60.362 10.5302 60.1745 10.4919 60.0069 10.4152C59.8393 10.337 59.7065 10.2241 59.6085 10.0764C59.5119 9.92864 59.4636 9.74754 59.4636 9.53305C59.4636 9.34839 59.4991 9.1964 59.5701 9.07708C59.6411 8.95776 59.737 8.8633 59.8578 8.7937C59.9785 8.7241 60.1134 8.67154 60.2626 8.63603C60.4117 8.60052 60.5637 8.57353 60.7186 8.55506C60.9146 8.53234 61.0737 8.51387 61.1958 8.49967C61.318 8.48404 61.4068 8.45918 61.4622 8.42509C61.5176 8.391 61.5453 8.3356 61.5453 8.2589V8.24399C61.5453 8.05791 61.4927 7.91373 61.3876 7.81146C61.2839 7.70918 61.1291 7.65805 60.9231 7.65805C60.7086 7.65805 60.5396 7.70563 60.416 7.8008C60.2938 7.89455 60.2093 7.99896 60.1624 8.11401L59.5637 7.97765C59.6347 7.77879 59.7384 7.61827 59.8748 7.49612C60.0126 7.37254 60.171 7.28305 60.3499 7.22765C60.5289 7.17083 60.7171 7.14242 60.9146 7.14242C61.0453 7.14242 61.1837 7.15805 61.3301 7.1893C61.4778 7.21913 61.6156 7.27452 61.7434 7.35549C61.8727 7.43646 61.9785 7.55222 62.0609 7.70279C62.1433 7.85194 62.1845 8.04583 62.1845 8.28447V10.4578H61.5623V10.0103H61.5367C61.4955 10.0927 61.4337 10.1737 61.3514 10.2532C61.269 10.3328 61.1632 10.3988 61.0339 10.4514C60.9046 10.5039 60.7498 10.5302 60.5694 10.5302ZM60.7079 10.0188C60.884 10.0188 61.0346 9.98404 61.1596 9.91444C61.286 9.84484 61.3819 9.75393 61.4472 9.64171C61.514 9.52808 61.5474 9.40663 61.5474 9.27737V8.85549C61.5247 8.87822 61.4806 8.89952 61.4153 8.91941C61.3514 8.93788 61.2782 8.95421 61.1958 8.96842C61.1134 8.9812 61.0332 8.99327 60.9551 9.00464C60.8769 9.01458 60.8116 9.0231 60.759 9.03021C60.6355 9.04583 60.5225 9.07211 60.4203 9.10904C60.3194 9.14597 60.2384 9.19924 60.1774 9.26884C60.1177 9.33703 60.0879 9.42793 60.0879 9.54157C60.0879 9.69924 60.1461 9.81856 60.2626 9.89953C60.3791 9.97907 60.5275 10.0188 60.7079 10.0188ZM61.2086 6.73333H60.7058L60.6887 6.29867C60.8393 6.29157 60.9458 6.27168 61.0083 6.23901C61.0708 6.20492 61.1014 6.15592 61.0999 6.092C61.1014 6.01529 61.058 5.9606 60.97 5.92793C60.8833 5.89526 60.7775 5.87893 60.6525 5.87893L60.6717 5.52737C60.9941 5.52737 61.2384 5.5785 61.4046 5.68077C61.5722 5.78305 61.6553 5.92083 61.6539 6.09413C61.6553 6.23475 61.6092 6.33845 61.5154 6.40521C61.4231 6.47055 61.3208 6.51174 61.2086 6.52879V6.73333ZM63.6701 8.51458V10.4578H63.033V7.18504H63.6445V7.71771H63.685C63.7603 7.54441 63.8782 7.40521 64.0387 7.30009C64.2006 7.19498 64.4045 7.14242 64.6502 7.14242C64.8732 7.14242 65.0685 7.1893 65.2361 7.28305C65.4037 7.37538 65.5337 7.51316 65.626 7.6964C65.7184 7.87964 65.7645 8.1062 65.7645 8.37609V10.4578H65.1275V8.45279C65.1275 8.21558 65.0657 8.03021 64.9421 7.89668C64.8185 7.76174 64.6488 7.69427 64.4329 7.69427C64.2851 7.69427 64.1537 7.72623 64.0387 7.79015C63.925 7.85407 63.8348 7.94782 63.7681 8.0714C63.7027 8.19356 63.6701 8.34129 63.6701 8.51458ZM68.2068 11.685V7.18504H68.829V7.71558H68.8823C68.9192 7.64739 68.9725 7.56856 69.0421 7.47907C69.1117 7.38958 69.2083 7.31146 69.3318 7.2447C69.4554 7.17651 69.6188 7.14242 69.8219 7.14242C70.0861 7.14242 70.3219 7.20918 70.5293 7.34271C70.7367 7.47623 70.8993 7.6687 71.0172 7.92012C71.1365 8.17154 71.1962 8.4741 71.1962 8.82779C71.1962 9.18149 71.1372 9.48475 71.0193 9.73759C70.9014 9.98901 70.7395 10.1829 70.5335 10.3193C70.3276 10.4542 70.0925 10.5217 69.8283 10.5217C69.6294 10.5217 69.4668 10.4883 69.3404 10.4215C69.2154 10.3548 69.1173 10.2767 69.0463 10.1872C68.9753 10.0977 68.9206 10.0181 68.8823 9.94853H68.8439V11.685H68.2068ZM68.8311 8.8214C68.8311 9.05151 68.8645 9.25322 68.9313 9.42651C68.998 9.59981 69.0946 9.73546 69.221 9.83347C69.3475 9.93006 69.5023 9.97836 69.6855 9.97836C69.8759 9.97836 70.035 9.92793 70.1628 9.82708C70.2906 9.72481 70.3872 9.58631 70.4526 9.4116C70.5193 9.23688 70.5527 9.04015 70.5527 8.8214C70.5527 8.60549 70.52 8.4116 70.4547 8.23972C70.3908 8.06785 70.2942 7.9322 70.1649 7.83276C70.0371 7.73333 69.8773 7.68362 69.6855 7.68362C69.5009 7.68362 69.3446 7.7312 69.2168 7.82637C69.0904 7.92154 68.9945 8.05435 68.9291 8.22481C68.8638 8.39526 68.8311 8.59413 68.8311 8.8214ZM72.547 8.51458V10.4578H71.91V6.09413H72.5385V7.71771H72.579C72.6557 7.54157 72.7729 7.40166 72.9306 7.29796C73.0882 7.19427 73.2942 7.14242 73.5485 7.14242C73.7729 7.14242 73.9689 7.18859 74.1365 7.28092C74.3056 7.37325 74.4362 7.51103 74.5286 7.69427C74.6223 7.87609 74.6692 8.10336 74.6692 8.37609V10.4578H74.0321V8.45279C74.0321 8.21274 73.9703 8.02666 73.8467 7.89455C73.7232 7.76103 73.5513 7.69427 73.3311 7.69427C73.1806 7.69427 73.0456 7.72623 72.9263 7.79015C72.8084 7.85407 72.7154 7.94782 72.6472 8.0714C72.5804 8.19356 72.547 8.34129 72.547 8.51458ZM76.4717 10.5302C76.2644 10.5302 76.0769 10.4919 75.9092 10.4152C75.7416 10.337 75.6088 10.2241 75.5108 10.0764C75.4142 9.92864 75.3659 9.74754 75.3659 9.53305C75.3659 9.34839 75.4014 9.1964 75.4725 9.07708C75.5435 8.95776 75.6394 8.8633 75.7601 8.7937C75.8808 8.7241 76.0158 8.67154 76.1649 8.63603C76.3141 8.60052 76.4661 8.57353 76.6209 8.55506C76.8169 8.53234 76.976 8.51387 77.0982 8.49967C77.2203 8.48404 77.3091 8.45918 77.3645 8.42509C77.4199 8.391 77.4476 8.3356 77.4476 8.2589V8.24399C77.4476 8.05791 77.395 7.91373 77.2899 7.81146C77.1862 7.70918 77.0314 7.65805 76.8254 7.65805C76.611 7.65805 76.4419 7.70563 76.3183 7.8008C76.1962 7.89455 76.1117 7.99896 76.0648 8.11401L75.4661 7.97765C75.5371 7.77879 75.6408 7.61827 75.7771 7.49612C75.9149 7.37254 76.0733 7.28305 76.2523 7.22765C76.4313 7.17083 76.6195 7.14242 76.8169 7.14242C76.9476 7.14242 77.0861 7.15805 77.2324 7.1893C77.3801 7.21913 77.5179 7.27452 77.6458 7.35549C77.775 7.43646 77.8808 7.55222 77.9632 7.70279C78.0456 7.85194 78.0868 8.04583 78.0868 8.28447V10.4578H77.4646V10.0103H77.4391C77.3979 10.0927 77.3361 10.1737 77.2537 10.2532C77.1713 10.3328 77.0655 10.3988 76.9362 10.4514C76.807 10.5039 76.6521 10.5302 76.4717 10.5302ZM76.6102 10.0188C76.7864 10.0188 76.9369 9.98404 77.0619 9.91444C77.1884 9.84484 77.2842 9.75393 77.3496 9.64171C77.4163 9.52808 77.4497 9.40663 77.4497 9.27737V8.85549C77.427 8.87822 77.383 8.89952 77.3176 8.91941C77.2537 8.93788 77.1806 8.95421 77.0982 8.96842C77.0158 8.9812 76.9355 8.99327 76.8574 9.00464C76.7793 9.01458 76.7139 9.0231 76.6614 9.03021C76.5378 9.04583 76.4249 9.07211 76.3226 9.10904C76.2217 9.14597 76.1408 9.19924 76.0797 9.26884C76.02 9.33703 75.9902 9.42793 75.9902 9.54157C75.9902 9.69924 76.0485 9.81856 76.1649 9.89953C76.2814 9.97907 76.4298 10.0188 76.6102 10.0188ZM77.128 6.10265L77.9483 6.842H77.3879L76.8425 6.35833L76.3034 6.842H75.7431L76.5612 6.10265H77.128ZM78.0698 6.44356H77.6735L77.6607 6.07708C77.78 6.06856 77.8681 6.05222 77.9249 6.02808C77.9817 6.00393 78.0101 5.96274 78.0101 5.9045C78.0101 5.83631 77.9732 5.78944 77.8993 5.76387C77.8254 5.73688 77.7324 5.72339 77.6202 5.72339L77.6394 5.42083C77.9064 5.42083 78.1088 5.46416 78.2466 5.5508C78.3844 5.63603 78.4533 5.75251 78.4533 5.90024C78.4533 6.02097 78.4135 6.11046 78.334 6.1687C78.2544 6.22552 78.1663 6.26032 78.0698 6.2731V6.44356ZM78.9353 10.4578V7.18504H79.5469V7.71771H79.5873C79.6555 7.53731 79.767 7.39668 79.9219 7.29583C80.0767 7.19356 80.2621 7.14242 80.478 7.14242C80.6967 7.14242 80.8799 7.19356 81.0277 7.29583C81.1768 7.3981 81.2869 7.53873 81.3579 7.71771H81.392C81.4701 7.54299 81.5944 7.40379 81.7649 7.30009C81.9353 7.19498 82.1385 7.14242 82.3743 7.14242C82.6711 7.14242 82.9133 7.23546 83.1008 7.42154C83.2898 7.60762 83.3842 7.88816 83.3842 8.26316V10.4578H82.7471V8.32282C82.7471 8.10123 82.6868 7.94072 82.566 7.84129C82.4453 7.74185 82.3011 7.69214 82.1335 7.69214C81.9261 7.69214 81.7649 7.75606 81.6498 7.8839C81.5348 8.01032 81.4773 8.17296 81.4773 8.37183V10.4578H80.8423V8.28234C80.8423 8.10478 80.7869 7.96202 80.6761 7.85407C80.5653 7.74612 80.4211 7.69214 80.2436 7.69214C80.1228 7.69214 80.0113 7.7241 79.9091 7.78802C79.8082 7.85052 79.7265 7.93788 79.664 8.05009C79.603 8.16231 79.5724 8.29228 79.5724 8.44001V10.4578H78.9353ZM87.2045 10.5238C86.8878 10.5238 86.615 10.4521 86.3863 10.3086C86.1591 10.1637 85.9844 9.96416 85.8622 9.70989C85.74 9.45563 85.679 9.16444 85.679 8.83631C85.679 8.50393 85.7415 8.2106 85.8665 7.95634C85.9915 7.70066 86.1676 7.50109 86.3949 7.35762C86.6221 7.21416 86.8899 7.14242 87.1981 7.14242C87.4467 7.14242 87.6683 7.18859 87.8629 7.28092C88.0575 7.37183 88.2145 7.49967 88.3338 7.66444C88.4545 7.82921 88.5263 8.02168 88.549 8.24185H87.929C87.8949 8.08845 87.8167 7.95634 87.6946 7.84555C87.5738 7.73475 87.4119 7.67935 87.2088 7.67935C87.0312 7.67935 86.8757 7.72623 86.7422 7.81998C86.6101 7.91231 86.5071 8.04441 86.4332 8.21629C86.3594 8.38674 86.3224 8.58845 86.3224 8.8214C86.3224 9.06004 86.3586 9.266 86.4311 9.4393C86.5035 9.61259 86.6058 9.74683 86.7379 9.842C86.8714 9.93717 87.0284 9.98475 87.2088 9.98475C87.3295 9.98475 87.4389 9.96274 87.5369 9.9187C87.6363 9.87325 87.7194 9.80862 87.7862 9.72481C87.8544 9.641 87.902 9.54015 87.929 9.42225H88.549C88.5263 9.6339 88.4574 9.82282 88.3423 9.98901C88.2273 10.1552 88.0731 10.2859 87.8799 10.3811C87.6882 10.4762 87.463 10.5238 87.2045 10.5238ZM91.3034 9.10052V7.18504H91.9426V10.4578H91.3162V9.891H91.2821C91.2068 10.0657 91.0861 10.2113 90.9199 10.3278C90.7551 10.4428 90.5499 10.5004 90.3041 10.5004C90.0939 10.5004 89.9078 10.4542 89.7459 10.3619C89.5854 10.2681 89.459 10.1296 89.3666 9.9464C89.2757 9.76316 89.2303 9.5366 89.2303 9.26671V7.18504H89.8673V9.19001C89.8673 9.41302 89.9291 9.59058 90.0527 9.72268C90.1763 9.85478 90.3368 9.92083 90.5342 9.92083C90.6536 9.92083 90.7722 9.891 90.8901 9.83134C91.0094 9.77168 91.1081 9.68149 91.1862 9.56075C91.2658 9.44001 91.3048 9.2866 91.3034 9.10052ZM90.8496 6.73333H90.3467L90.3297 6.29867C90.4803 6.29157 90.5868 6.27168 90.6493 6.23901C90.7118 6.20492 90.7423 6.15592 90.7409 6.092C90.7423 6.01529 90.699 5.9606 90.611 5.92793C90.5243 5.89526 90.4185 5.87893 90.2935 5.87893L90.3127 5.52737C90.6351 5.52737 90.8794 5.5785 91.0456 5.68077C91.2132 5.78305 91.2963 5.92083 91.2949 6.09413C91.2963 6.23475 91.2502 6.33845 91.1564 6.40521C91.0641 6.47055 90.9618 6.51174 90.8496 6.52879V6.73333ZM93.751 10.5302C93.5437 10.5302 93.3562 10.4919 93.1885 10.4152C93.0209 10.337 92.8881 10.2241 92.7901 10.0764C92.6935 9.92864 92.6452 9.74754 92.6452 9.53305C92.6452 9.34839 92.6807 9.1964 92.7518 9.07708C92.8228 8.95776 92.9187 8.8633 93.0394 8.7937C93.1601 8.7241 93.2951 8.67154 93.4442 8.63603C93.5934 8.60052 93.7454 8.57353 93.9002 8.55506C94.0962 8.53234 94.2553 8.51387 94.3775 8.49967C94.4996 8.48404 94.5884 8.45918 94.6438 8.42509C94.6992 8.391 94.7269 8.3356 94.7269 8.2589V8.24399C94.7269 8.05791 94.6743 7.91373 94.5692 7.81146C94.4655 7.70918 94.3107 7.65805 94.1047 7.65805C93.8902 7.65805 93.7212 7.70563 93.5976 7.8008C93.4755 7.89455 93.391 7.99896 93.3441 8.11401L92.7454 7.97765C92.8164 7.77879 92.9201 7.61827 93.0564 7.49612C93.1942 7.37254 93.3526 7.28305 93.5316 7.22765C93.7106 7.17083 93.8988 7.14242 94.0962 7.14242C94.2269 7.14242 94.3654 7.15805 94.5117 7.1893C94.6594 7.21913 94.7972 7.27452 94.925 7.35549C95.0543 7.43646 95.1601 7.55222 95.2425 7.70279C95.3249 7.85194 95.3661 8.04583 95.3661 8.28447V10.4578H94.7439V10.0103H94.7184C94.6772 10.0927 94.6154 10.1737 94.533 10.2532C94.4506 10.3328 94.3448 10.3988 94.2155 10.4514C94.0863 10.5039 93.9314 10.5302 93.751 10.5302ZM93.8895 10.0188C94.0657 10.0188 94.2162 9.98404 94.3412 9.91444C94.4677 9.84484 94.5635 9.75393 94.6289 9.64171C94.6956 9.52808 94.729 9.40663 94.729 9.27737V8.85549C94.7063 8.87822 94.6623 8.89952 94.5969 8.91941C94.533 8.93788 94.4599 8.95421 94.3775 8.96842C94.2951 8.9812 94.2148 8.99327 94.1367 9.00464C94.0586 9.01458 93.9932 9.0231 93.9407 9.03021C93.8171 9.04583 93.7042 9.07211 93.6019 9.10904C93.501 9.14597 93.4201 9.19924 93.359 9.26884C93.2993 9.33703 93.2695 9.42793 93.2695 9.54157C93.2695 9.69924 93.3277 9.81856 93.4442 9.89953C93.5607 9.97907 93.7091 10.0188 93.8895 10.0188Z" fill="black"/>
<defs>
<clipPath id="clip0_1_53">
<rect width="104" height="41" fill="white" transform="translate(0 0.975952)"/>
</clipPath>
</defs>
</svg>
