<svg width="218" height="63" viewBox="0 0 218 63" fill="none" xmlns="http://www.w3.org/2000/svg">
<g clip-path="url(#clip0_1_12)">
<path d="M48.0204 17.7994H54.2141V37.6232H58.432V17.7994H64.6256V13.4903H48.0204V17.7994Z" fill="url(#paint0_linear_1_12)"/>
<path d="M71.4808 20.6974C70.6538 21.2242 70.0473 21.8922 69.6613 22.7014H69.3857V20.4339H65.5905V37.6233H69.6613V29.0615C69.6613 27.6126 70.0013 26.4177 70.6905 25.4769C71.3797 24.536 72.3354 24.0656 73.576 24.0656C73.9436 24.0656 74.3479 24.1221 74.789 24.235C75.2117 24.3479 75.6895 24.5078 76.2133 24.7242V20.3116C75.6068 20.0482 74.936 19.9164 74.2101 19.9164C73.1992 19.9164 72.2895 20.1799 71.4808 20.7068V20.6974Z" fill="url(#paint1_linear_1_12)"/>
<path d="M89.4184 29.1933C89.4184 30.6234 89.0784 31.7806 88.3892 32.6838C87.7 33.6059 86.7811 34.0669 85.6232 34.0669C84.7502 34.0669 84.061 33.7376 83.5556 33.079C83.0502 32.4392 82.7929 31.5266 82.7929 30.3505V20.4433H78.6945V30.8774C78.6945 33.1637 79.1999 34.9513 80.2107 36.2403C81.2031 37.5104 82.6459 38.1502 84.5481 38.1502C85.6232 38.1502 86.5697 37.9056 87.3968 37.4257C88.2422 36.9459 88.913 36.2873 89.4 35.4499H89.639V37.6233H93.4617V20.4339H89.3908V29.1933H89.4184Z" fill="url(#paint2_linear_1_12)"/>
<path d="M112.392 28.6005C112.392 26.954 112.088 25.4768 111.482 24.1597C110.876 22.8425 109.975 21.7981 108.78 21.036C107.586 20.2645 106.18 19.8882 104.562 19.8882C103.046 19.8882 101.659 20.3022 100.409 21.1395C99.1499 21.9487 98.185 23.0683 97.4958 24.4984C96.7883 25.9285 96.4299 27.4526 96.4299 29.0709C96.4299 30.8491 96.7791 32.4109 97.4958 33.7469C98.2218 35.1488 99.2142 36.2402 100.473 37.0023C101.705 37.7738 103.12 38.1501 104.719 38.1501C108.036 38.1501 110.499 36.626 112.098 33.5776L108.79 31.837C108.385 32.6085 107.861 33.2013 107.209 33.6152C106.52 34.0574 105.711 34.2738 104.783 34.2738C103.671 34.2738 102.715 33.9163 101.934 33.1918C101.126 32.4486 100.62 31.4136 100.418 30.0964H112.318C112.383 29.6354 112.41 29.1462 112.41 28.6193L112.392 28.6005ZM100.583 26.9258C100.887 25.8908 101.392 25.0629 102.1 24.4231C102.789 23.8115 103.616 23.5011 104.59 23.5011C105.362 23.5011 106.024 23.6798 106.593 24.0279C107.135 24.3761 107.586 24.8183 107.926 25.3451C108.247 25.872 108.431 26.3989 108.468 26.9258H100.574H100.583Z" fill="url(#paint3_linear_1_12)"/>
<path d="M116.398 36.5696C115.323 35.5158 114.79 34.1139 114.79 32.3545C114.79 31.2161 115.066 30.2 115.608 29.325C116.132 28.4688 116.904 27.8008 117.915 27.321C118.925 26.8411 120.01 26.5965 121.158 26.5965C122.794 26.5965 124.191 26.86 125.349 27.3868V26.6342C125.349 25.6933 125.027 24.9312 124.375 24.3667C123.704 23.774 122.831 23.4823 121.737 23.4823C121.03 23.4823 120.313 23.6705 119.587 24.0374C118.898 24.3855 118.319 24.8748 117.859 25.4863L115.25 23.2847C115.994 22.231 116.959 21.3936 118.135 20.782C119.284 20.1893 120.552 19.8976 121.93 19.8976C124.338 19.8976 126.185 20.5092 127.481 21.7417C128.73 22.946 129.364 24.7148 129.364 27.0387V37.6421H125.358V35.9016H125.119C124.614 36.6072 123.989 37.1529 123.235 37.548C122.463 37.962 121.563 38.169 120.533 38.169C118.852 38.169 117.483 37.6421 116.407 36.5884L116.398 36.5696ZM124.319 33.5118C125.009 32.7027 125.349 31.7336 125.349 30.614C124.237 30.0683 123.125 29.7954 122.013 29.7954C119.909 29.7954 118.861 30.6516 118.861 32.3639C118.861 33.0696 119.091 33.6341 119.559 34.0763C120.028 34.5185 120.671 34.7349 121.498 34.7349C122.693 34.7349 123.63 34.3303 124.319 33.5212V33.5118Z" fill="black"/>
<path d="M135.852 37.0023C134.657 36.212 133.739 35.1394 133.086 33.7752C132.415 32.3922 132.084 30.8115 132.084 29.0333C132.084 27.2551 132.415 25.7121 133.086 24.329C133.757 22.946 134.676 21.864 135.852 21.0737C137.047 20.2834 138.352 19.8882 139.767 19.8882C140.842 19.8882 141.788 20.1423 142.615 20.6409C143.442 21.149 144.077 21.7699 144.499 22.5132H144.775L144.499 20.114V13.4998H148.57V37.6327H144.775V35.5911H144.499C144.077 36.3626 143.461 36.9741 142.652 37.4351C141.825 37.915 140.86 38.1596 139.767 38.1596C138.306 38.1596 137.001 37.7738 135.852 37.0117V37.0023ZM142.588 33.4459C143.231 33.0319 143.764 32.4392 144.168 31.6677C144.573 30.8962 144.775 30.0212 144.775 29.0333C144.775 28.0454 144.573 27.1704 144.168 26.3989C143.764 25.6274 143.24 25.0347 142.588 24.6207C141.945 24.2067 141.219 23.9998 140.438 23.9998C139.656 23.9998 138.995 24.2067 138.342 24.6207C137.653 25.0629 137.12 25.6557 136.734 26.3989C136.348 27.1422 136.155 28.0266 136.155 29.0333C136.155 30.04 136.348 30.9244 136.734 31.6677C137.12 32.411 137.653 33.0037 138.342 33.4459C138.986 33.8599 139.684 34.0669 140.438 34.0669C141.228 34.0669 141.945 33.8599 142.588 33.4459Z" fill="black"/>
<path d="M153.753 36.8706C152.577 36.0145 151.75 34.9042 151.263 33.5494L154.874 31.8371C155.196 32.6274 155.674 33.2389 156.298 33.6811C156.887 34.0951 157.594 34.3021 158.421 34.3021C159.193 34.3021 159.818 34.1704 160.305 33.9069C160.792 33.6435 161.031 33.2107 161.031 32.6274C161.031 32.0817 160.81 31.6583 160.36 31.3761C159.974 31.1126 159.285 30.8586 158.292 30.614L156.445 30.1906C155.15 29.8613 154.075 29.2497 153.229 28.3465C152.384 27.4715 151.952 26.3613 151.952 25.0253C151.952 24.0374 152.228 23.153 152.77 22.3627C153.293 21.5912 154.047 20.989 155.012 20.5562C155.986 20.114 157.024 19.8976 158.136 19.8976C161.417 19.8976 163.595 21.149 164.688 23.6516L161.196 25.2981C160.59 24.0938 159.597 23.4917 158.219 23.4917C157.511 23.4917 156.951 23.6328 156.547 23.9151C156.124 24.1973 155.912 24.5549 155.912 24.9688C155.912 25.778 156.62 26.3801 158.035 26.7753L160.369 27.3962C161.968 27.8384 163.154 28.4782 163.916 29.3344C164.707 30.2094 165.102 31.2914 165.102 32.5615C165.102 33.6341 164.808 34.6126 164.22 35.4876C163.65 36.3438 162.841 37.0023 161.794 37.4634C160.764 37.9244 159.625 38.1502 158.394 38.1502C156.455 38.1502 154.892 37.7268 153.716 36.8706H153.753Z" fill="black"/>
<path d="M24.1925 0.205505H19.8551C7.83549 0.205505 0.520782 4.42053 0.520782 19.6247V27.8195C0.520782 43.0331 7.83549 47.2387 19.8459 47.2387H24.1833C36.1938 47.2387 43.5085 43.0237 43.5085 27.8195V19.6247C43.5269 4.42053 36.2122 0.205505 24.1925 0.205505Z" fill="url(#paint4_linear_1_12)"/>
<path d="M29.1088 24.4419C30.1564 20.5844 32.5824 15.1086 35.284 11.7592C30.6342 16.2941 24.9368 23.4634 21.8584 33.38C18.394 23.3693 14.1118 18.9003 12.6323 19.9728C12.6323 19.9728 14.1118 16.3976 16.4183 16.3976C18.7248 16.3976 20.5351 19.4365 21.693 23.9056C23.6044 20.2174 28.8055 13.782 33.7127 9.34119H16.6848C12.3107 9.34119 8.76361 13.1893 8.76361 17.9406V29.8236C8.76361 34.4055 12.182 38.1219 16.4091 38.1219H27.3628C31.7369 38.1219 35.284 34.2738 35.284 29.5225V17.5266C33.4921 18.9379 31.2499 21.1301 29.1088 24.4513V24.4419Z" fill="white"/>
</g>
<defs>
<linearGradient id="paint0_linear_1_12" x1="56.323" y1="13.4903" x2="56.323" y2="37.6232" gradientUnits="userSpaceOnUse">
<stop stop-color="#F16238"/>
<stop offset="1" stop-color="#F05431"/>
</linearGradient>
<linearGradient id="paint1_linear_1_12" x1="70.9019" y1="19.9164" x2="70.9019" y2="37.6233" gradientUnits="userSpaceOnUse">
<stop stop-color="#F16238"/>
<stop offset="1" stop-color="#F05431"/>
</linearGradient>
<linearGradient id="paint2_linear_1_12" x1="86.0781" y1="20.4339" x2="86.0781" y2="38.1502" gradientUnits="userSpaceOnUse">
<stop stop-color="#F16238"/>
<stop offset="1" stop-color="#F05431"/>
</linearGradient>
<linearGradient id="paint3_linear_1_12" x1="104.42" y1="19.8882" x2="104.42" y2="38.1501" gradientUnits="userSpaceOnUse">
<stop stop-color="#F16238"/>
<stop offset="1" stop-color="#F05431"/>
</linearGradient>
<linearGradient id="paint4_linear_1_12" x1="22.0147" y1="0.205505" x2="22.0147" y2="47.2387" gradientUnits="userSpaceOnUse">
<stop stop-color="#F16238"/>
<stop offset="1" stop-color="#F05431"/>
</linearGradient>
<clipPath id="clip0_1_12">
<rect width="218" height="62" fill="white" transform="translate(0 0.205505)"/>
</clipPath>
</defs>
</svg>
