<svg width="24" height="25" viewBox="0 0 24 25" fill="none" xmlns="http://www.w3.org/2000/svg">
<mask id="mask0_15_994" style="mask-type:alpha" maskUnits="userSpaceOnUse" x="0" y="0" width="24" height="25">
<rect y="0.5" width="24" height="24" fill="#D9D9D9"/>
</mask>
<g mask="url(#mask0_15_994)">
<path d="M6.9001 20.3C6.06676 20.3 5.35843 20.0083 4.7751 19.425C4.19176 18.8417 3.9001 18.1333 3.9001 17.3H1.8001L2.4001 15.5H4.5001C4.78343 15.1333 5.13543 14.8417 5.5561 14.625C5.9766 14.4083 6.4246 14.3 6.9001 14.3C7.3756 14.3 7.8236 14.4083 8.2441 14.625C8.66477 14.8417 9.01676 15.1333 9.3001 15.5H14.2001L16.3001 7.09999H5.4001L5.6001 6.49999C5.73343 6.13332 5.95426 5.84165 6.2626 5.62499C6.57093 5.40832 6.91676 5.29999 7.3001 5.29999H18.6001L17.7001 8.89999H19.8001L22.8001 13.1L21.6001 17.3H20.4001C20.4001 18.1333 20.1084 18.8417 19.5251 19.425C18.9418 20.0083 18.2334 20.3 17.4001 20.3C16.5668 20.3 15.8584 20.0083 15.2751 19.425C14.6918 18.8417 14.4001 18.1333 14.4001 17.3H9.9001C9.9001 18.1333 9.60843 18.8417 9.0251 19.425C8.44176 20.0083 7.73343 20.3 6.9001 20.3ZM16.5001 13.7H20.7501L20.8251 13.425L18.8751 10.7H17.2501L16.5001 13.7ZM0.600098 13.9L1.0501 12.1H6.0001L5.5501 13.9H0.600098ZM2.4001 10.5L2.8501 8.69999H8.7001L8.2501 10.5H2.4001ZM6.9001 18.5C7.2401 18.5 7.5251 18.385 7.7551 18.155C7.9851 17.925 8.1001 17.64 8.1001 17.3C8.1001 16.96 7.9851 16.675 7.7551 16.445C7.5251 16.215 7.2401 16.1 6.9001 16.1C6.5601 16.1 6.2751 16.215 6.0451 16.445C5.8151 16.675 5.7001 16.96 5.7001 17.3C5.7001 17.64 5.8151 17.925 6.0451 18.155C6.2751 18.385 6.5601 18.5 6.9001 18.5ZM17.4001 18.5C17.7401 18.5 18.0251 18.385 18.2551 18.155C18.4851 17.925 18.6001 17.64 18.6001 17.3C18.6001 16.96 18.4851 16.675 18.2551 16.445C18.0251 16.215 17.7401 16.1 17.4001 16.1C17.0601 16.1 16.7751 16.215 16.5451 16.445C16.3151 16.675 16.2001 16.96 16.2001 17.3C16.2001 17.64 16.3151 17.925 16.5451 18.155C16.7751 18.385 17.0601 18.5 17.4001 18.5Z" fill="#A9AAB2"/>
</g>
</svg>
