<svg width="24" height="25" viewBox="0 0 24 25" fill="none" xmlns="http://www.w3.org/2000/svg">
<mask id="mask0_15_1018" style="mask-type:alpha" maskUnits="userSpaceOnUse" x="0" y="0" width="24" height="25">
<rect y="0.5" width="24" height="24" fill="#D9D9D9"/>
</mask>
<g mask="url(#mask0_15_1018)">
<path d="M5 21.5C4.45 21.5 3.97917 21.3042 3.5875 20.9125C3.19583 20.5208 3 20.05 3 19.5V5.5C3 4.95 3.19583 4.47917 3.5875 4.0875C3.97917 3.69583 4.45 3.5 5 3.5H9.2C9.43333 2.9 9.8 2.41667 10.3 2.05C10.8 1.68333 11.3667 1.5 12 1.5C12.6333 1.5 13.2 1.68333 13.7 2.05C14.2 2.41667 14.5667 2.9 14.8 3.5H19C19.55 3.5 20.0208 3.69583 20.4125 4.0875C20.8042 4.47917 21 4.95 21 5.5V19.5C21 20.05 20.8042 20.5208 20.4125 20.9125C20.0208 21.3042 19.55 21.5 19 21.5H5ZM12 4.75C12.2167 4.75 12.3958 4.67917 12.5375 4.5375C12.6792 4.39583 12.75 4.21667 12.75 4C12.75 3.78333 12.6792 3.60417 12.5375 3.4625C12.3958 3.32083 12.2167 3.25 12 3.25C11.7833 3.25 11.6042 3.32083 11.4625 3.4625C11.3208 3.60417 11.25 3.78333 11.25 4C11.25 4.21667 11.3208 4.39583 11.4625 4.5375C11.6042 4.67917 11.7833 4.75 12 4.75ZM5 18.35C5.9 17.4667 6.94583 16.7708 8.1375 16.2625C9.32917 15.7542 10.6167 15.5 12 15.5C13.3833 15.5 14.6708 15.7542 15.8625 16.2625C17.0542 16.7708 18.1 17.4667 19 18.35V5.5H5V18.35ZM12 13.5C12.9667 13.5 13.7917 13.1583 14.475 12.475C15.1583 11.7917 15.5 10.9667 15.5 10C15.5 9.03333 15.1583 8.20833 14.475 7.525C13.7917 6.84167 12.9667 6.5 12 6.5C11.0333 6.5 10.2083 6.84167 9.525 7.525C8.84167 8.20833 8.5 9.03333 8.5 10C8.5 10.9667 8.84167 11.7917 9.525 12.475C10.2083 13.1583 11.0333 13.5 12 13.5ZM7 19.5H17V19.25C16.3 18.6667 15.525 18.2292 14.675 17.9375C13.825 17.6458 12.9333 17.5 12 17.5C11.0667 17.5 10.175 17.6458 9.325 17.9375C8.475 18.2292 7.7 18.6667 7 19.25V19.5ZM12 11.5C11.5833 11.5 11.2292 11.3542 10.9375 11.0625C10.6458 10.7708 10.5 10.4167 10.5 10C10.5 9.58333 10.6458 9.22917 10.9375 8.9375C11.2292 8.64583 11.5833 8.5 12 8.5C12.4167 8.5 12.7708 8.64583 13.0625 8.9375C13.3542 9.22917 13.5 9.58333 13.5 10C13.5 10.4167 13.3542 10.7708 13.0625 11.0625C12.7708 11.3542 12.4167 11.5 12 11.5Z" fill="#A9AAB2"/>
</g>
</svg>
