<svg width="24" height="25" viewBox="0 0 24 25" fill="none" xmlns="http://www.w3.org/2000/svg">
<mask id="mask0_15_973" style="mask-type:alpha" maskUnits="userSpaceOnUse" x="0" y="0" width="24" height="25">
<rect y="0.5" width="24" height="24" fill="#D9D9D9"/>
</mask>
<g mask="url(#mask0_15_973)">
<path d="M5.4001 22.1C4.9051 22.1 4.48135 21.9238 4.12885 21.5713C3.77635 21.2188 3.6001 20.795 3.6001 20.3V8.30001C3.6001 7.80501 3.77635 7.38126 4.12885 7.02876C4.48135 6.67626 4.9051 6.50001 5.4001 6.50001H7.2001C7.2001 5.17201 7.66868 4.04001 8.60585 3.10401C9.54285 2.16801 10.6762 1.70001 12.0058 1.70001C13.3353 1.70001 14.4668 2.16801 15.4001 3.10401C16.3334 4.04001 16.8001 5.17201 16.8001 6.50001H18.6001C19.0951 6.50001 19.5188 6.67626 19.8713 7.02876C20.2238 7.38126 20.4001 7.80501 20.4001 8.30001V20.3C20.4001 20.795 20.2238 21.2188 19.8713 21.5713C19.5188 21.9238 19.0951 22.1 18.6001 22.1H5.4001ZM5.4001 20.3H18.6001V8.30001H5.4001V20.3ZM12.0058 14.9C13.3353 14.9 14.4668 14.432 15.4001 13.496C16.3334 12.56 16.8001 11.428 16.8001 10.1H15.0001C15.0001 10.9333 14.7084 11.6417 14.1251 12.225C13.5418 12.8083 12.8334 13.1 12.0001 13.1C11.1668 13.1 10.4584 12.8083 9.8751 12.225C9.29176 11.6417 9.0001 10.9333 9.0001 10.1H7.2001C7.2001 11.4333 7.66868 12.5667 8.60585 13.5C9.54285 14.4333 10.6762 14.9 12.0058 14.9ZM9.0001 6.50001H15.0001C15.0001 5.66668 14.7084 4.95835 14.1251 4.37501C13.5418 3.79168 12.8334 3.50001 12.0001 3.50001C11.1668 3.50001 10.4584 3.79168 9.8751 4.37501C9.29176 4.95835 9.0001 5.66668 9.0001 6.50001Z" fill="#A9AAB2"/>
</g>
</svg>
