<svg width="24" height="25" viewBox="0 0 24 25" fill="none" xmlns="http://www.w3.org/2000/svg">
<mask id="mask0_15_964" style="mask-type:alpha" maskUnits="userSpaceOnUse" x="0" y="0" width="24" height="25">
<rect y="0.5" width="24" height="24" fill="#D9D9D9"/>
</mask>
<g mask="url(#mask0_15_964)">
<path d="M5.3999 22.1C4.9049 22.1 4.48115 21.9238 4.12865 21.5713C3.77615 21.2188 3.5999 20.795 3.5999 20.3V10C3.2499 9.86669 2.9624 9.64586 2.7374 9.33752C2.5124 9.02919 2.3999 8.68336 2.3999 8.30002V4.70002C2.3999 4.20502 2.57615 3.78128 2.92865 3.42878C3.28115 3.07628 3.7049 2.90002 4.1999 2.90002H19.7999C20.2949 2.90002 20.7187 3.07628 21.0712 3.42878C21.4237 3.78128 21.5999 4.20502 21.5999 4.70002V8.30002C21.5999 8.68336 21.4874 9.02919 21.2624 9.33752C21.0374 9.64586 20.7499 9.86669 20.3999 10V20.2965C20.3999 20.7989 20.2237 21.225 19.8712 21.575C19.5187 21.925 19.0949 22.1 18.5999 22.1H5.3999ZM5.3999 10.1V20.3H18.5999V10.1H5.3999ZM4.1999 8.30002H19.7999V4.70002H4.1999V8.30002ZM9.5999 14.3H14.3999V12.5H9.5999V14.3Z" fill="#A9AAB2"/>
</g>
</svg>
