<svg width="24" height="25" viewBox="0 0 24 25" fill="none" xmlns="http://www.w3.org/2000/svg">
<mask id="mask0_15_1006" style="mask-type:alpha" maskUnits="userSpaceOnUse" x="0" y="0" width="24" height="25">
<rect y="0.5" width="24" height="24" fill="#D9D9D9"/>
</mask>
<g mask="url(#mask0_15_1006)">
<path d="M18.6 14.3V7.99999L13.8 4.52499L8.99995 8.00749V9.49999H7.19995V7.09999L13.8 2.29999L20.4 7.07499V14.3H18.6ZM14.25 8.59999H15.15V7.69999H14.25V8.59999ZM12.45 8.59999H13.35V7.69999H12.45V8.59999ZM14.25 10.4H15.15V9.49999H14.25V10.4ZM12.45 10.4H13.35V9.49999H12.45V10.4ZM7.19995 18.8L13.8 20.825L19.675 19.025C19.5416 18.675 19.3217 18.4 19.0152 18.2C18.7089 18 18.3621 17.9 17.975 17.9H12.7C12.4166 17.9 12.1333 17.8792 11.85 17.8375C11.5666 17.7958 11.2916 17.725 11.025 17.625L9.32495 16.975L9.87495 15.25L11.625 15.9C11.8083 15.9667 11.9875 16.0167 12.1625 16.05C12.3375 16.0833 12.5166 16.1 12.7 16.1H15C15 15.9333 14.9583 15.7917 14.875 15.675C14.7916 15.5583 14.6666 15.4667 14.5 15.4L8.09995 13.1H7.19995V18.8ZM1.19995 22.1V11.3H8.04995C8.18328 11.3 8.30828 11.3125 8.42495 11.3375C8.54162 11.3625 8.65453 11.3926 8.7637 11.4277L15.175 13.725C15.675 13.9083 16.0708 14.2187 16.3625 14.6562C16.6541 15.0937 16.8 15.575 16.8 16.1H17.975C18.982 16.1 19.8379 16.45 20.5427 17.15C21.2475 17.85 21.6 18.7 21.6 19.7V20.3L13.825 22.7L7.19995 20.675V22.1H1.19995ZM2.99995 20.3H5.39995V13.1H2.99995V20.3Z" fill="#A9AAB2"/>
</g>
</svg>
