<svg xmlns="http://www.w3.org/2000/svg" version="1.1"
    xmlns:xlink="http://www.w3.org/1999/xlink" width="512" height="512" x="0" y="0" viewBox="0 0 512 512" style="enable-background:new 0 0 512 512" xml:space="preserve" class="">
    <g>
        <path fill="#fdcf66" d="M512 213.29v-16.12c0-1.28-.31-2.54-.89-3.68l-41.98-81.35c-5.28-10.26-17.33-16.63-31.46-16.63h-19.52c1.24-3.02 1.93-6.32 1.93-9.78V25.51c0-14.23-11.56-25.81-25.77-25.81H117.67C103.46-.3 91.9 11.28 91.9 25.51v60.22c0 3.46.69 6.76 1.93 9.78H74.3c-14.13 0-26.18 6.37-31.45 16.62L.89 193.49c-.59 1.14-.89 2.4-.89 3.68v16.12c0 28.62 20.93 52.43 48.27 56.91v182.1H29.94C13.43 452.31 0 465.77 0 482.32v21.96c0 4.43 3.58 8.02 8 8.02h496c4.42 0 8-3.59 8-8.02v-21.96c0-16.55-13.44-30.01-29.97-30.01H463.7v-182.1c27.35-4.47 48.3-28.29 48.3-56.92z" opacity="1" data-original="#fdcf66"></path>
        <path fill="#b5cdff" d="M209.03 452.31V297.15c0-4.43-3.58-8.02-8-8.02h-97.48c-4.42 0-8 3.59-8 8.02v155.16z" opacity="1" data-original="#b5cdff"></path>
        <path fill="#a9c5f7" d="M201.04 289.13H152.3v163.18h56.74V297.15c-.01-4.43-3.59-8.02-8-8.02z" opacity="1" data-original="#a9c5f7"></path>
        <path fill="#e5e5e8" d="M394.3-.3H117.67C103.46-.3 91.9 11.28 91.9 25.51v60.22c0 14.23 11.56 25.81 25.77 25.81H394.3c14.21 0 25.77-11.58 25.77-25.81V25.51c0-14.23-11.56-25.81-25.77-25.81z" opacity="1" data-original="#e5e5e8"></path>
        <path fill="#dcdce2" d="M394.3-.3H256v111.84h138.3c14.21 0 25.77-11.58 25.77-25.81V25.51c0-14.23-11.56-25.81-25.77-25.81z" opacity="1" data-original="#dcdce2"></path>
        <path fill="#fc6067" d="m511.11 193.49-41.98-81.35c-5.28-10.26-17.33-16.63-31.46-16.63h-19.52c-3.86 9.4-13.09 16.03-23.85 16.03H117.67c-10.76 0-19.99-6.64-23.85-16.03H74.3c-14.13 0-26.18 6.37-31.45 16.62L.89 193.49c-.59 1.14-.89 2.4-.89 3.68v16.12c0 31.8 25.83 57.68 57.6 57.68 21.08 0 39.55-11.41 49.58-28.38 10.04 16.97 28.52 28.38 49.6 28.38 21.09 0 39.57-11.41 49.61-28.38 10.04 16.98 28.52 28.38 49.61 28.38 21.08 0 39.55-11.41 49.58-28.38 10.04 16.97 28.52 28.38 49.6 28.38 21.09 0 39.57-11.41 49.61-28.38 10.04 16.98 28.52 28.38 49.61 28.38 31.76 0 57.6-25.88 57.6-57.68v-16.12c0-1.28-.31-2.54-.89-3.68z" opacity="1" data-original="#fc6067"></path>
        <path fill="#b5cdff" d="M408.7 289.13H248c-4.42 0-8 3.59-8 8.02v119.16c0 4.43 3.58 8.02 8 8.02h160.7c4.42 0 8-3.59 8-8.02V297.15c0-4.43-3.58-8.02-8-8.02z" opacity="1" data-original="#b5cdff"></path>
        <path fill="#f5b354" d="M454.4 270.97c-21.09 0-39.57-11.41-49.61-28.38-10.04 16.98-28.52 28.38-49.61 28.38s-39.57-11.41-49.6-28.38c-10.03 16.97-28.5 28.38-49.58 28.38v18.16h152.7c4.42 0 8 3.59 8 8.02v119.16c0 4.43-3.58 8.02-8 8.02H256v27.98h207.7v-182.1c-3.03.49-6.14.76-9.3.76z" opacity="1" data-original="#f5b354"></path>
        <path fill="#334a5c" d="M174.25 403.24c-4.42 0-8-3.59-8-8.02v-10.56c0-4.43 3.58-8.02 8-8.02s8 3.59 8 8.02v10.56c0 4.43-3.58 8.02-8 8.02zM482.03 452.31H29.94C13.43 452.31 0 465.77 0 482.32v21.96c0 4.43 3.58 8.02 8 8.02h496c4.42 0 8-3.59 8-8.02v-21.96c0-16.55-13.44-30.01-29.97-30.01zM394.3-.3H117.67C103.46-.3 91.9 11.28 91.9 25.51v60.22c0 14.23 11.56 25.81 25.77 25.81H394.3c14.21 0 25.77-11.58 25.77-25.81V25.51c0-14.23-11.56-25.81-25.77-25.81zm9.78 86.03c0 5.39-4.38 9.78-9.77 9.78H117.67c-5.39 0-9.78-4.39-9.78-9.78V25.51c0-5.39 4.38-9.78 9.78-9.78H394.3c5.39 0 9.77 4.39 9.77 9.78v60.22z" opacity="1" data-original="#334a5c"></path>
        <path fill="#2e4554" d="M353.88 21.32H335.2c-4.42 0-8 3.59-8 8.02V81.9c0 4.43 3.58 8.02 8 8.02s8-3.59 8-8.02V68.8h10.68c13.07 0 23.7-10.65 23.7-23.74s-10.63-23.74-23.7-23.74zm0 31.45H343.2V37.36h10.68c4.18 0 7.71 3.53 7.71 7.7 0 4.25-3.46 7.71-7.71 7.71z" opacity="1" data-original="#2e4554"></path>
        <path fill="#334a5c" d="M161.11 48.08c-4.08-1.46-10.26-3.66-10.64-5.64-.1-.52-.14-1.09.58-1.96 1.44-1.75 4.68-3.13 7.36-3.13 3.44 0 6.67 1.75 8.64 4.69 2.47 3.67 7.44 4.65 11.1 2.17 3.66-2.47 4.63-7.45 2.17-11.13-4.95-7.37-13.14-11.77-21.91-11.77-7.5 0-15.23 3.52-19.71 8.97-3.59 4.37-4.99 9.78-3.93 15.23 2.14 10.94 12.58 14.67 20.98 17.66 4.08 1.46 10.24 3.66 10.63 5.6.1.51.14 1.09-.57 1.95-1.45 1.76-4.69 3.14-7.39 3.14-3.45 0-6.66-1.74-8.59-4.65-2.44-3.69-7.41-4.69-11.09-2.25-3.68 2.45-4.68 7.42-2.24 11.11 4.9 7.4 13.09 11.81 21.91 11.81 7.51 0 15.26-3.52 19.74-8.98 3.59-4.37 4.99-9.77 3.92-15.24-2.16-10.87-12.59-14.59-20.96-17.58zM240.75 21.32c-4.42 0-8 3.59-8 8.02V47.6h-22.87V29.34c0-4.43-3.58-8.02-8-8.02s-8 3.59-8 8.02V81.9c0 4.43 3.58 8.02 8 8.02s8-3.59 8-8.02V63.64h22.87V81.9c0 4.43 3.58 8.02 8 8.02s8-3.59 8-8.02V29.34c0-4.43-3.58-8.02-8-8.02z" opacity="1" data-original="#334a5c"></path>
        <path fill="#2e4554" d="M287.55 21.32c-15.13 0-27.44 12.33-27.44 27.48v13.62c0 15.16 12.31 27.48 27.44 27.48 15.12 0 27.42-12.33 27.42-27.48V48.81c-.01-15.16-12.3-27.49-27.42-27.49zm11.42 41.11c0 6.31-5.12 11.45-11.42 11.45-6.31 0-11.45-5.14-11.45-11.45V48.81c0-6.31 5.14-11.45 11.45-11.45 6.3 0 11.42 5.14 11.42 11.45z" opacity="1" data-original="#2e4554"></path>
        <path fill="#ea5762" d="m1.45 192.4-.56 1.09c-.59 1.14-.89 2.4-.89 3.68v16.12c0 31.8 25.83 57.68 57.6 57.68 21.08 0 39.55-11.41 49.58-28.38V192.4z" opacity="1" data-original="#ea5762"></path>
        <path fill="#dcdce2" d="M107.18 192.4v50.19c10.04 16.97 28.52 28.38 49.6 28.38 21.09 0 39.57-11.41 49.61-28.38V192.4z" opacity="1" data-original="#dcdce2"></path>
        <path fill="#ea5762" d="M206.39 192.4v50.18c10.04 16.98 28.52 28.38 49.61 28.38 21.08 0 39.55-11.41 49.58-28.38V192.4z" opacity="1" data-original="#ea5762"></path>
        <path fill="#d2d2db" d="M305.58 242.59c10.04 16.97 28.52 28.38 49.6 28.38 21.09 0 39.57-11.41 49.61-28.38V192.4h-99.21z" opacity="1" data-original="#d2d2db"></path>
        <path fill="#e55163" d="M404.79 242.59c10.04 16.98 28.52 28.38 49.61 28.38 31.76 0 57.6-25.88 57.6-57.68v-16.12c0-1.28-.31-2.54-.89-3.68l-.56-1.08H404.79z" opacity="1" data-original="#e55163"></path>
        <path fill="#e5e5e8" d="m139.4 111.54-32.21 80.86h99.21l12.31-80.86z" opacity="1" data-original="#e5e5e8"></path>
        <path fill="#ea5762" d="M469.13 112.14c-5.28-10.26-17.33-16.63-31.46-16.63h-19.52c-3.86 9.4-13.09 16.03-23.85 16.03h-21.72l32.21 80.86h105.76z" opacity="1" data-original="#ea5762"></path>
        <path fill="#dcdce2" d="m293.28 111.54 12.31 80.86h99.2l-32.21-80.86z" opacity="1" data-original="#dcdce2"></path>
        <path fill="#2e4554" d="M482.03 452.31H256v59.99h248c4.42 0 8-3.59 8-8.02v-21.96c0-16.55-13.44-30.01-29.97-30.01z" opacity="1" data-original="#2e4554"></path>
        <path fill="#e55163" d="M256 270.97c21.08 0 39.55-11.41 49.58-28.38V192.4H256z" opacity="1" data-original="#e55163"></path>
        <path fill="#ea5762" d="M256 192.4h49.59l-12.31-80.86H256z" opacity="1" data-original="#ea5762"></path>
        <path fill="#2e4554" d="M394.3-.3H256v16.03h138.3c5.39 0 9.77 4.39 9.77 9.78v60.22c0 5.39-4.38 9.78-9.77 9.78H256v16.03h138.3c14.21 0 25.77-11.58 25.77-25.81V25.51c0-14.23-11.56-25.81-25.77-25.81z" opacity="1" data-original="#2e4554"></path>
        <path fill="#a9c5f7" d="M408.7 289.13h-80.35v135.19h80.35c4.42 0 8-3.59 8-8.02V297.15c0-4.43-3.58-8.02-8-8.02z" opacity="1" data-original="#a9c5f7"></path>
    </g>
</svg>