<?xml version="1.0" encoding="UTF-8"?>
<svg id="Layer_2" xmlns="http://www.w3.org/2000/svg" version="1.1" xmlns:xlink="http://www.w3.org/1999/xlink" viewBox="0 0 574.3 86.9">
  <!-- Generator: Adobe Illustrator 29.3.1, SVG Export Plug-In . SVG Version: 2.1.0 Build 151)  -->
  <defs>
    <style>
      .st0 {
        fill: url(#linear-gradient2);
      }

      .st1 {
        fill: #fff;
      }

      .st2 {
        fill: url(#linear-gradient1);
      }

      .st3 {
        fill: #fdcc0f;
      }

      .st4 {
        fill: url(#linear-gradient4);
      }

      .st5 {
        fill: url(#linear-gradient3);
      }

      .st6 {
        fill: gray;
      }

      .st7 {
        fill: none;
        stroke: #b3b3b3;
        stroke-miterlimit: 10;
        stroke-width: .5px;
      }

      .st8 {
        fill: url(#linear-gradient);
      }
    </style>
    <linearGradient id="linear-gradient" x1="105.6" y1="51.5" x2="105.6" y2="24.2" gradientTransform="translate(0 88) scale(1 -1)" gradientUnits="userSpaceOnUse">
      <stop offset="0" stop-color="#f1673a"/>
      <stop offset="1" stop-color="#ef502f"/>
    </linearGradient>
    <linearGradient id="linear-gradient1" x1="133.1" y1="51.5" x2="133.1" y2="24.2" xlink:href="#linear-gradient"/>
    <linearGradient id="linear-gradient2" x1="161.8" y1="51.5" x2="161.8" y2="24.2" xlink:href="#linear-gradient"/>
    <linearGradient id="linear-gradient3" x1="196.5" y1="51.5" x2="196.5" y2="24.2" xlink:href="#linear-gradient"/>
    <linearGradient id="linear-gradient4" x1="40.7" y1="88" x2="40.7" y2="1.1" xlink:href="#linear-gradient"/>
  </defs>
  <g id="Layer_1-2">
    <g>
      <g>
        <g>
          <path class="st3" d="M435.2,22.4c-17.8,0-32.2,14.4-32.2,32.3s14.5,32.2,32.2,32.2,32.2-14.4,32.2-32.2-14.4-32.2-32.2-32.3ZM430.7,83.9c-.9,0-1.6-.7-1.6-1.6s.7-1.6,1.6-1.6,1.6.7,1.6,1.6-.7,1.6-1.6,1.6ZM435.2,84.2c-.9,0-1.6-.7-1.6-1.6s.7-1.6,1.6-1.6c14.5,0,26.3-11.8,26.3-26.3s-11.8-26.4-26.3-26.4-1.6-.7-1.6-1.6.7-1.6,1.6-1.6c16.3,0,29.5,13.3,29.5,29.5s-13.2,29.6-29.5,29.6h0Z"/>
          <path class="st3" d="M409.4,82.1c-.5,0-.8-.2-1.2-.4-7.2-7.3-11.2-16.8-11.2-27s4-19.8,11.2-26.9c7.2-7.2,16.7-11.2,26.9-11.2s19.8,4,26.9,11.2c.6.6.6,1.7,0,2.3s-1.7.6-2.3,0c-6.5-6.6-15.2-10.3-24.6-10.3s-18.1,3.6-24.6,10.3c-6.6,6.6-10.3,15.3-10.3,24.6s3.6,18.1,10.2,24.7c.6.6.6,1.7,0,2.3-.3.3-.6.4-1.1.4Z"/>
          <circle class="st3" cx="412.8" cy="83.5" r="1.6"/>
          <g>
            <path d="M453.5,56.5c-.4-.2-.9-.5-1.9-.6l-1.6-.4c-1.2-.3-2.1-.8-2.8-1.5-.8-.7-1.2-1.6-1.2-2.8s.2-1.6.7-2.2,1.2-1.2,2-1.5c.9-.4,1.8-.5,2.8-.5,2.9,0,4.9,1.1,5.9,3.1l-3.1,1.3c-.5-1-1.4-1.5-2.7-1.5s-1.2.2-1.5.4c-.4.2-.5.5-.5.9,0,.6.6,1.2,2,1.5l2,.5c1.4.4,2.5.9,3.2,1.6s1.1,1.6,1.1,2.7-.3,1.7-.8,2.4c-.5.7-1.2,1.2-2.1,1.6-1.1.5-2,.8-3.2.8-1.7,0-3.1-.5-4.1-1.2-1.1-.7-1.8-1.6-2.2-2.8l3.2-1.4c.3.6.7,1.2,1.2,1.5s1.2.5,2,.5,1.2-.2,1.7-.4c.5-.2.6-.5.6-1.1,0-.4-.2-.8-.5-1h0Z"/>
            <path d="M439.4,42v5.5l.2,2h-.2c-.5-.7-1-1.2-1.7-1.6-.8-.5-1.7-.6-2.6-.6-1.2,0-2.4.3-3.5,1-1.1.6-2,1.5-2.5,2.7-.6,1.2-.9,2.5-.9,3.9s.4,2.8.9,3.9c.5,1.1,1.4,2,2.5,2.7,1,.6,2.1.9,3.6.8,1,0,1.9,0,2.6-.5.7-.4,1.2-.9,1.6-1.5h.2v1.7h3.4v-19.8h-3.6,0ZM439,56.8c-.4.6-.9,1.2-1.4,1.5-.6.3-1.2.6-2,.5-.6,0-1.3-.2-1.9-.5s-1.1-.9-1.4-1.5c-.4-.6-.5-1.3-.5-2.2s.2-1.6.5-2.2c.4-.6.8-1.2,1.4-1.5s1.2-.5,1.9-.5,1.4.2,2,.5,1.1.9,1.4,1.5c.4.6.5,1.3.5,2.2s-.2,1.6-.5,2.2Z"/>
            <path d="M419.9,41.9h-4.3l-7.4,19.8h4.2l1.6-4.8h7.6l1.7,4.8h4.2l-7.4-19.8ZM415.1,53.6l1.8-5,.7-2.4h.2l.7,2.4,1.8,5h-5.1,0Z"/>
          </g>
        </g>
        <g>
          <path d="M524.1,64.4c.3,0,.9.3,1.1.7.3.3.2.6-.2.6-9.9-.7-17.2-.5-22.5,0-3.1,4.3-6.6,8.6-8.2,8.6s-4-1-5-2.4c-.5-.8-.7-1.7-.4-2.5s1.1-1.5,2.3-2.3c2-1.2,5.1-2.1,10-2.8,1.1-1.4,2.7-3.9,3.5-5.2-1.4,1.2-4.4,2.4-5.5,2.2-1.7-.3-2-1-1.8-2.1.6-2.7,5.7-6.2,8.7-3.1,1.1-1,1.8-1.8,1.8-1.8.2-.2.5,0,1,.2.5.3.6.7.5.9l-.5.7h0s-2.4,3.8-5.2,8c5-.5,11.8-.5,20.5.2h0ZM500.1,66.2c-3.5.6-5.9,1.4-7.5,2.4-1.2.6-1.9,1.4-2.1,2s-.2,1.2,0,1.5c.5.5,1.4.9,2.7,1,1.3,0,4.1-3.2,6.8-6.9h0ZM505.6,56.9c-2.1-2.3-8.3,3.7-5.9,3.8,1.2,0,4.7-1.8,5.9-3.8Z"/>
          <path d="M516.4,57.1c-2.2.9-4.7,1.2-4.8,1.2-3.2,5.7,9.5.9,10.9-1.3.2-.3.6-.5,1.1-.2.3.3.3.5.3.7-1.3,1.9-8.6,6-11.9,4.5-1.6-.7-2.6-2.3-2.2-3.8.3-1,1-2,1.9-2.8,1-.9,2-1.7,3-2.3,1.3-.8,2.7-1.2,3.1-1.2s.8.3,1.2.6c.5.5.6.9.5,1.4,0,.4-.3.7-.5,1.1-.5.8-1.5,1.7-2.6,2.1h0ZM513.1,56.5c.6-.2,1.3-.4,2.1-.6,1-.5,1.9-1.2,2.3-2,0-.2.2-.3.3-.5-.5.2-1.2.5-1.9.9-.9.6-1.9,1.3-2.8,2.2h0Z"/>
          <path d="M524,54.6c.2-.2.6,0,1,.2.5.3.6.7.5.9l-1.2,1.8c2.6-1.8,5.3-3.5,6.3-3.2h0c1.4.4,1.6,1.1,1.3,2-.2.5-.5.9-.8,1.5-.6,1-1.3,2.1-1.3,2.1,1.5.8,6.6-2.8,6.6-2.8.2-.2.6-.6,1.1-.3.5.3.2.4,0,.6,0,0-5.1,5-7.5,3.6-2.1-1.2-1.1-2.8-.2-4.3.2-.3.3-.6.5-.9-2.7,1.2-8.9,6-9.1,6.2-.2.2-.5,0-1-.3-.3-.3-.6-.7-.5-.9l4.2-6.3h0Z"/>
          <path d="M543,57.7c-.2.3-.5.2-1-.2-.5-.3-.6-.7-.5-.9,0,0,.8-1.3.6-1.3-.9,0-2.8,1-4.3,2.4-.5.5-1.1,1.1-1.4,1.6-.3.5-.5,1.1-.5,1.5s0,.6.3.9c2,1.4,11.6-4.5,11.6-4.5.2,0,.6-.5,1-.5.3.4.5.7.3.9,0,0-10.2,7.2-13.3,4.8-1.1-.8-1.4-1.6-1.4-2.5s.3-1.2.6-1.8c.3-.5.9-1.2,1.4-1.7,1.5-1.4,3.6-2.6,4.7-2.5,3.9,0,1.8,3.7,1.8,3.7h0Z"/>
          <path d="M573.1,64.4c.3,0,.9.3,1.1.7.3.3.2.6-.2.6-9.9-.7-17.2-.5-22.5,0-3.1,4.3-6.6,8.6-8.2,8.6s-4-1-5-2.4c-.5-.8-.7-1.7-.3-2.5s1.1-1.5,2.3-2.3c2-1.2,5.1-2.1,10-2.8,1.2-1.7,2.4-3.4,3.4-4.9-1.4,1.1-2.9,1.9-3.9,1.8-.5,0-.7,0-1.1-.3-1-.5-1.4-1.1-1.4-1.9,0-.5.2-1.1.5-1.7.6-1.2,1.9-2.8,3.4-4.3.2-.2.6,0,1.1.3.3.4.5.7.3.9-1.5,1.4-2.7,2.9-3.3,4.1,0,.2-.2,1,0,1.2,3.2.6,8.8-6,8.4-6.2h0c.2-.2.5,0,1,.3.3.3.6.7.5.9l-1.1,1.5h-.1s-2.4,3.8-5.2,8c5-.3,11.7-.3,20.4.3h0ZM549,66.2c-3.5.6-5.9,1.4-7.5,2.4-1.2.6-1.9,1.4-2.1,2s-.2,1.2,0,1.5c.5.5,1.4.9,2.8,1,1.3,0,4.1-3.2,6.8-6.9h0Z"/>
          <path d="M498.9,50.7c1.5-3,2.7-5.5,3.5-7.7.5-1.2.5-2,.1-2.5-.3-.3-.7-.5-1.2-.4-.3,0-1.1.6-6.4,5.1l-.9.8c-4.7-2.4-13.1-.8-19,1.8-1.4.6-2.7,1.3-3.8,2-1.2.8-1.8,1.5-2.1,2-.4.7-.1,1.4.6,1.9,1.6,1.1,8.2,1.2,13.8,1l-.7.6c-3.7,3.1-7.3,6-9.6,7.6,0,0,0,0-.1-.2-.3-.3-.7-.4-1-.2-1,.7-2.1,1.7-1.9,2.3.1.6.5.9,1.1.9s.2,0,.3,0c1.3-.2,5.7-3.6,14.8-11.2,2.8-.1,5.5-.3,7.7-.5h1.1c-1.4,2.2-2.7,4.2-3.9,5.9-1.4,2.1-1.9,2.8-1.7,3.3.2.6.7.9,1.2.7.4,0,.8-.4,2-1.7.8-1,2.4-3,3.7-5.6.4-.9.8-1.9,1-2.9,1.5,0,2.3-.2,2.3-.2h.1c.2-.1.3-.2.3-.4,0-.2,0-.4-.2-.5-.2-.4-.6-.5-.9-.5,0,0-.4,0-1.1.1.2-.4.4-.8.6-1.2l.2-.5h0ZM492.4,47.3c-1.3,1.1-2.7,2.3-4.2,3.6-.9.7-1.8,1.5-2.7,2.2-11.1.6-14.1,0-14.9-.4,0,0,0,0,0,0h0c.3-.6.9-1.2,1.8-1.7,1.2-.8,2.4-1.4,3.7-1.9,5.4-2.3,12.6-3.8,17-2.2l-.7.5h0ZM497.6,49.9c-.4-1.1-1.1-2.1-2.1-2.9l1-.9c1.8-1.5,3.4-2.9,4.5-3.7-.5,1.5-1.6,3.9-3.4,7.5,0,0,0,0,0,0ZM496.4,52.2v.2c-.1,0-.7,0-.7,0-2,.2-4.6.4-7.4.5,1.9-1.5,3.7-3.1,5.3-4.5l1-.9c.8.6,1.3,1.3,1.5,2.2.2.7.3,1.5.2,2.5h0Z"/>
        </g>
      </g>
      <g>
        <path class="st6" d="M397.7,5.3h1.2v1.1h0c.2-.4.5-.7,1-1s.9-.4,1.4-.4,1,.1,1.5.4c.4.3.7.6.9,1.1.3-.5.6-.8,1.1-1.1.5-.3,1-.4,1.6-.4.9,0,1.6.3,2,.8.5.6.7,1.3.7,2.2v5h-1.3v-4.8c0-.7-.1-1.2-.5-1.6-.3-.3-.7-.5-1.3-.5s-.7.1-1,.3c-.3.2-.6.5-.7.9-.2.3-.2.8-.2,1.2v4.4h-1.3v-4.8c0-.7-.1-1.2-.5-1.6s-.7-.5-1.3-.5-.7.1-1,.3c-.3.2-.6.5-.7.9-.2.4-.2.8-.2,1.2v4.4h-1.3v-7.8h0Z"/>
        <path class="st6" d="M412.5,12.7c-.6-.4-1.1-.9-1.4-1.5-.3-.6-.5-1.3-.5-2.1s.2-1.5.5-2.1c.4-.6.8-1.1,1.4-1.5s1.3-.6,2-.6,1.5.2,2,.6c.6.4,1.1.9,1.4,1.5.3.6.5,1.3.5,2.1s-.2,1.5-.5,2.1c-.4.6-.8,1.1-1.4,1.5-.6.4-1.3.5-2,.5s-1.5-.2-2-.5ZM415.9,11.7c.4-.2.7-.6,1-1,.2-.4.4-1,.4-1.6s-.1-1.1-.4-1.6c-.3-.5-.6-.8-1-1-.4-.2-.9-.4-1.3-.4s-.9.1-1.3.4c-.4.2-.7.6-1,1-.2.4-.4,1-.4,1.6s.1,1.1.4,1.6c.3.4.6.8,1,1,.4.2.9.4,1.3.4s.9-.1,1.3-.4ZM412.4,3.6l1.5-1.8h1.1l1.6,1.8h0c0,0-1.2,0-1.2,0l-.8-1h-.1l-.8,1h-1.2c0,0,0,0,0,0ZM414,15.7c-.2-.2-.2-.4-.2-.6s0-.4.2-.6.4-.2.6-.2.4,0,.6.2.2.3.2.6,0,.4-.2.6c-.1.2-.3.2-.6.2s-.4,0-.6-.2Z"/>
        <path class="st6" d="M422.1,13c-.3-.1-.5-.2-.7-.4-.4-.4-.6-.9-.6-1.6v-4.5h-1.4v-1.2h1.4v-2.2h1.3v2.2h1.9v1.2h-1.9v4.2c0,.4,0,.8.2.9.2.2.5.3.9.3s.6,0,.9-.2v1.3c-.1,0-.3.1-.5.1-.2,0-.4,0-.6,0s-.6,0-.9-.1h0Z"/>
        <path class="st6" d="M429.7,12.7c-.5-.4-.9-.9-1.2-1.5l1.1-.5c.2.5.5.8.9,1.1.4.3.8.4,1.3.4s.9-.1,1.2-.3.5-.5.5-.9-.1-.6-.4-.8c-.3-.2-.7-.4-1.3-.5l-1-.2c-.6-.1-1.1-.4-1.5-.8-.4-.4-.6-.8-.6-1.4s.1-.8.4-1.2c.3-.3.6-.6,1.1-.8.5-.2,1-.3,1.5-.3s1.3.2,1.8.4c.5.3.9.7,1.1,1.2l-1.1.5c-.4-.7-1-1-1.8-1s-.8,0-1.1.3c-.3.2-.5.4-.5.8s.1.5.3.7.6.3,1,.5l1.1.3c.8.2,1.4.5,1.7.9.4.4.6.9.6,1.4s-.1.9-.4,1.2c-.3.4-.6.6-1.1.8-.5.2-1,.3-1.5.3-.8,0-1.5-.2-2.1-.6h0Z"/>
        <path class="st6" d="M437.3,12.9c-.5-.2-.8-.5-1-.9s-.4-.8-.4-1.3c0-.8.3-1.5.9-1.9.6-.5,1.4-.7,2.4-.7s.9,0,1.3.1c.4.1.7.2.9.4v-.5c0-.6-.2-1-.6-1.4-.4-.4-.9-.5-1.5-.5s-.8,0-1.2.3c-.4.2-.7.5-.9.8l-1-.7c.3-.5.7-.8,1.3-1.1.5-.3,1.1-.4,1.8-.4,1,0,1.9.3,2.5.8.6.5.9,1.3.9,2.3v4.9h-1.2v-1.1h0c-.2.4-.6.7-1,1-.4.3-.9.4-1.5.4s-1.1-.1-1.5-.3h0ZM440.1,11.8c.4-.2.7-.5.9-.9.2-.4.3-.8.3-1.2-.2-.2-.5-.3-.9-.4-.3-.1-.7-.1-1.1-.1-.7,0-1.2.1-1.6.4-.4.3-.5.7-.5,1.1s.2.8.5,1c.3.3.7.4,1.2.4s.8-.1,1.2-.3h0ZM438.7,3.5c.3,0,.5-.2.7-.3.1-.1.2-.3.2-.5s0-.3-.2-.4c-.1,0-.3-.2-.5-.2s-.6,0-.9.2l-.2-.8c.4-.2.8-.2,1.2-.2s.9.1,1.2.4.4.6.4,1-.1.8-.5,1.1c-.3.3-.7.5-1.2.5l-.2-.8h0Z"/>
        <path class="st6" d="M444.4,5.3h1.2v1.1h0c.2-.4.5-.7,1-1,.5-.3,1-.4,1.5-.4.9,0,1.6.3,2.1.8.5.6.7,1.3.7,2.2v5h-1.3v-4.8c0-.7-.2-1.2-.5-1.6-.3-.3-.8-.5-1.4-.5s-.8.1-1.1.4c-.4.3-.6.6-.8.9-.2.4-.3.8-.3,1.2v4.4h-1.3v-7.8h0Z"/>
        <path class="st6" d="M456.3,5.3h1.2v1.2h0c.2-.4.6-.7,1.1-1,.5-.3,1-.4,1.6-.4s1.3.2,1.9.5c.5.4,1,.8,1.3,1.5.3.6.5,1.3.5,2.1s-.2,1.5-.5,2.1c-.3.6-.8,1.1-1.3,1.5-.5.4-1.2.5-1.9.5s-1.1-.1-1.6-.4c-.5-.3-.8-.6-1.1-1h0v1.1c0,0,0,3.4,0,3.4h-1.3V5.3ZM461.4,11.7c.4-.2.7-.6,1-1,.2-.4.3-.9.3-1.5s-.1-1.1-.3-1.6c-.2-.4-.5-.8-1-1-.4-.2-.8-.4-1.3-.4s-.9.1-1.3.4c-.4.2-.7.6-1,1-.2.5-.4,1-.4,1.6s.1,1.1.4,1.5c.2.5.5.8,1,1,.4.2.8.4,1.3.4s.9-.1,1.3-.4Z"/>
        <path class="st6" d="M465.3,2.1h1.3v4.3c0,0,0,0,0,0,.2-.4.5-.7,1-1,.5-.3,1-.4,1.5-.4.9,0,1.7.3,2.1.8.5.6.7,1.3.7,2.2v5h-1.3v-4.8c0-.7-.2-1.2-.5-1.5-.4-.3-.8-.5-1.4-.5s-.8.1-1.1.4c-.3.2-.6.6-.8.9-.2.4-.3.8-.3,1.2v4.3h-1.3V2.1h0Z"/>
        <path class="st6" d="M474.9,12.9c-.5-.2-.8-.5-1-.9s-.4-.8-.4-1.3c0-.8.3-1.5.9-1.9.6-.5,1.4-.7,2.4-.7s.9,0,1.3.1c.4.1.7.2.9.4v-.5c0-.6-.2-1-.6-1.4-.4-.4-.9-.5-1.5-.5s-.8,0-1.2.3c-.4.2-.7.5-.9.8l-1-.7c.3-.5.7-.8,1.3-1.1.5-.3,1.1-.4,1.8-.4,1,0,1.9.3,2.5.8.6.5.9,1.3.9,2.3v4.9h-1.2v-1.1h0c-.2.4-.6.7-1,1-.4.3-.9.4-1.5.4s-1.1-.1-1.5-.3h0ZM474.8,3.6l1.5-1.8h1.1l1.6,1.8h0c0,0-1.2,0-1.2,0l-.9-.9h-.1l-.8.9h-1.2c0,0,0,0,0,0ZM477.7,11.8c.4-.2.7-.5.9-.9s.3-.8.3-1.2c-.2-.2-.5-.3-.9-.4-.3-.1-.7-.1-1.1-.1-.7,0-1.2.1-1.6.4-.4.3-.5.7-.5,1.1s.2.8.5,1c.3.3.7.4,1.2.4s.8-.1,1.2-.3h0ZM478.6,2.3c.3-.4.5-.7.5-.9s0-.3-.2-.4c-.1,0-.2-.1-.4-.1s-.4,0-.5.1V0c.3,0,.5,0,.6,0,.5,0,.8.1,1.1.3.2.2.4.5.4.9s0,.5-.2.8-.4.5-.7.8l-.5-.6h0Z"/>
        <path class="st6" d="M482,5.3h1.2v1.1h0c.2-.4.5-.7,1-1s.9-.4,1.4-.4,1,.1,1.5.4c.4.3.7.6.9,1.1.3-.5.6-.8,1.1-1.1.5-.3,1-.4,1.6-.4.9,0,1.6.3,2,.8.5.6.7,1.3.7,2.2v5h-1.3v-4.8c0-.7-.2-1.2-.5-1.6s-.7-.5-1.3-.5-.7.1-1,.3c-.3.2-.6.5-.7.9-.2.3-.2.8-.2,1.2v4.4h-1.3v-4.8c0-.7-.1-1.2-.5-1.6s-.7-.5-1.3-.5-.7.1-1,.3c-.3.2-.6.5-.7.9-.2.4-.2.8-.2,1.2v4.4h-1.3v-7.8h0Z"/>
        <path class="st6" d="M500.3,12.7c-.6-.4-1-.9-1.4-1.5-.3-.6-.5-1.3-.5-2.1s.2-1.5.5-2.1c.4-.6.8-1.1,1.4-1.5.6-.4,1.3-.5,2-.5s1.5.2,2.1.6c.6.4,1,.9,1.2,1.6l-1.2.5c-.2-.5-.5-.9-.8-1.1-.4-.2-.8-.4-1.4-.4s-.9.1-1.3.4-.7.6-1,1c-.2.5-.4,1-.4,1.5s.1,1.1.4,1.5.5.8,1,1c.4.3.8.4,1.3.4s1-.1,1.4-.4c.4-.2.7-.6.9-1.1l1.1.5c-.3.6-.7,1.1-1.3,1.5-.6.4-1.3.6-2.1.6s-1.4-.2-2-.5Z"/>
        <path class="st6" d="M507.8,12.4c-.5-.6-.7-1.3-.7-2.3v-4.9h1.3v4.7c0,.8.2,1.3.5,1.6.3.4.8.5,1.3.5s.8-.1,1.2-.4c.3-.2.6-.5.8-.9.2-.4.3-.8.3-1.2v-4.4h1.3v7.8h-1.2v-1.1h0c-.2.4-.5.7-1,1-.5.3-.9.4-1.5.4-.9,0-1.7-.3-2.1-.8h0ZM509.8,3.5c.3,0,.5-.2.7-.3.1-.1.2-.3.2-.5s0-.3-.2-.4c-.1,0-.3-.2-.5-.2s-.5,0-.8.2l-.3-.8c.4-.2.8-.2,1.2-.2s.9.1,1.2.4c.3.2.4.6.4,1s-.2.8-.5,1.1c-.3.3-.7.5-1.2.5l-.2-.8h0Z"/>
        <path class="st6" d="M516.6,12.9c-.5-.2-.8-.5-1-.9s-.4-.8-.4-1.3c0-.8.3-1.5.9-1.9.6-.5,1.4-.7,2.3-.7s.9,0,1.3.1c.4.1.7.2.9.4v-.5c0-.6-.2-1-.6-1.4-.4-.4-.9-.5-1.5-.5s-.8,0-1.2.3c-.4.2-.7.5-.9.8l-1-.7c.3-.5.7-.8,1.3-1.1.5-.3,1.1-.4,1.8-.4,1,0,1.9.3,2.5.8.6.5.9,1.3.9,2.3v4.9h-1.2v-1.1h0c-.2.4-.6.7-1,1-.4.3-.9.4-1.5.4s-1.1-.1-1.5-.3h0ZM519.5,11.8c.4-.2.7-.5.9-.9.2-.4.3-.8.3-1.2-.2-.2-.5-.3-.9-.4-.3-.1-.7-.1-1.1-.1-.7,0-1.2.1-1.6.4-.4.3-.5.7-.5,1.1s.2.8.5,1c.3.3.7.4,1.2.4s.8-.1,1.2-.3h0Z"/>
      </g>
      <line class="st7" x1="357.2" y1="7.6" x2="357.2" y2="86.6"/>
    </g>
  </g>
  <g>
    <g>
      <g>
        <polygon class="st8" points="89.9 32.5 101.6 32.5 101.6 69.1 109.6 69.1 109.6 32.5 121.3 32.5 121.3 24.5 89.9 24.5 89.9 32.5"/>
        <path class="st2" d="M134.2,37.9c-1.6,1-2.7,2.2-3.4,3.7h-.5v-4.2h-7.2v31.8h7.7v-15.8c0-2.7.6-4.9,1.9-6.6s3.1-2.6,5.5-2.6,1.5.1,2.3.3c.8.2,1.7.5,2.7.9v-8.2c-1.1-.5-2.4-.7-3.8-.7s-3.6.5-5.2,1.5h0Z"/>
        <path class="st0" d="M168.2,53.6c0,2.6-.6,4.8-1.9,6.4-1.3,1.7-3,2.6-5.2,2.6s-3-.6-3.9-1.8c-1-1.2-1.4-2.9-1.4-5v-18.3h-7.8v19.3c0,4.2,1,7.5,2.9,9.9,1.9,2.3,4.6,3.5,8.2,3.5s3.8-.5,5.4-1.3c1.6-.9,2.9-2.1,3.8-3.7h.5v4h7.2v-31.8h-7.7v16.2h0Z"/>
        <path class="st5" d="M211.6,52.5c0-3-.6-5.8-1.7-8.2s-2.9-4.4-5.1-5.8c-2.3-1.4-4.9-2.1-8-2.1s-5.5.8-7.9,2.3c-2.4,1.5-4.2,3.6-5.5,6.2-1.3,2.6-2,5.5-2,8.4s.7,6.2,2,8.6c1.4,2.6,3.3,4.6,5.6,6,2.3,1.4,5,2.1,8,2.1,6.3,0,10.9-2.8,14-8.4l-6.3-3.2c-.8,1.4-1.8,2.5-3,3.3-1.3.8-2.8,1.2-4.6,1.2s-3.9-.7-5.4-2c-1.5-1.4-2.5-3.3-2.9-5.7h22.5c.1-.9.2-1.8.2-2.7h0ZM189.3,49.4c.6-1.9,1.5-3.4,2.9-4.6,1.3-1.1,2.9-1.7,4.7-1.7s2.7.3,3.8,1c1,.6,1.9,1.5,2.5,2.4.6,1,1,1.9,1,2.9h-14.9,0Z"/>
      </g>
      <path d="M219.2,67.2c-2-1.9-3-4.5-3-7.8s.5-4,1.5-5.6c1-1.6,2.5-2.8,4.4-3.7,1.9-.9,4-1.3,6.1-1.3,3.1,0,5.7.5,7.9,1.5v-1.4c0-1.7-.6-3.1-1.8-4.2-1.3-1.1-2.9-1.6-5-1.6s-2.7.3-4.1,1c-1.3.6-2.4,1.5-3.3,2.7l-4.9-4.1c1.4-1.9,3.2-3.5,5.5-4.6,2.2-1.1,4.6-1.6,7.2-1.6,4.6,0,8,1.1,10.5,3.4,2.4,2.2,3.6,5.5,3.6,9.8v19.6h-7.6v-3.2h-.5c-1,1.3-2.1,2.3-3.6,3-1.5.8-3.2,1.1-5.1,1.1-3.2,0-5.8-1-7.8-2.9h0ZM234.2,61.5c1.3-1.5,1.9-3.3,1.9-5.4-2.1-1-4.2-1.5-6.3-1.5-4,0-6,1.6-6,4.7s.4,2.3,1.3,3.2,2.1,1.2,3.7,1.2c2.3,0,4-.7,5.3-2.2h0Z"/>
      <path d="M256,68c-2.3-1.5-4-3.4-5.2-6-1.3-2.6-1.9-5.5-1.9-8.8s.6-6.1,1.9-8.7,3-4.6,5.2-6c2.3-1.5,4.7-2.2,7.4-2.2s3.8.5,5.4,1.4c1.6.9,2.8,2.1,3.6,3.5h.5l-.5-4.4v-12.2h7.7v44.6h-7.2v-3.8h-.5c-.8,1.4-2,2.6-3.5,3.4-1.6.9-3.4,1.3-5.5,1.3s-5.2-.7-7.4-2.1h0ZM268.7,61.4c1.2-.8,2.2-1.9,3-3.3s1.1-3,1.1-4.9-.4-3.4-1.1-4.9-1.8-2.5-3-3.3c-1.2-.8-2.6-1.1-4.1-1.1s-2.7.4-4,1.1c-1.3.8-2.3,1.9-3,3.3-.7,1.4-1.1,3-1.1,4.9s.4,3.5,1.1,4.9,1.7,2.5,3,3.3c1.2.8,2.5,1.1,4,1.1s2.9-.4,4.1-1.1Z"/>
      <path d="M289.9,67.7c-2.2-1.6-3.8-3.6-4.7-6.1l6.8-3.2c.6,1.5,1.5,2.6,2.7,3.4,1.1.8,2.5,1.1,4,1.1s2.6-.2,3.6-.7,1.4-1.3,1.4-2.4-.4-1.8-1.3-2.3c-.7-.5-2-1-3.9-1.4l-3.5-.8c-2.5-.6-4.5-1.7-6.1-3.4-1.6-1.6-2.4-3.7-2.4-6.1s.5-3.5,1.5-4.9c1-1.4,2.4-2.5,4.2-3.3,1.8-.8,3.8-1.2,5.9-1.2,6.2,0,10.3,2.3,12.4,6.9l-6.6,3c-1.1-2.2-3-3.3-5.6-3.3s-2.4.3-3.2.8c-.8.5-1.2,1.2-1.2,1.9,0,1.5,1.3,2.6,4,3.3l4.4,1.1c3,.8,5.3,2,6.7,3.6,1.5,1.6,2.2,3.6,2.2,6s-.6,3.8-1.7,5.4c-1.1,1.6-2.6,2.8-4.6,3.7-1.9.9-4.1,1.3-6.4,1.3-3.7,0-6.6-.8-8.8-2.4h0Z"/>
    </g>
    <g>
      <path class="st4" d="M44.8,0h-8.2C13.8,0,0,7.8,0,35.9v15.1c0,28.1,13.8,35.9,36.6,35.9h8.2c22.7,0,36.6-7.8,36.6-35.9v-15.1C81.4,7.8,67.5,0,44.8,0Z"/>
      <path class="st1" d="M54.1,44.8c2-7.1,6.6-17.2,11.7-23.4h0c-8.8,8.4-19.6,21.6-25.4,39.9-6.6-18.5-14.7-26.8-17.5-24.8,0,0,2.8-6.6,7.2-6.6s7.8,5.6,10,13.9c3.6-6.8,13.5-18.7,22.7-26.9H30.6c-8.3,0-15,7.1-15,15.9v22c0,8.5,6.5,15.3,14.5,15.3h20.7c8.3,0,15-7.1,15-15.9v-22.2c-3.4,2.6-7.6,6.7-11.7,12.8h0Z"/>
    </g>
  </g>
</svg>